<svg xmlns="http://www.w3.org/2000/svg" width="1439" height="384" fill="none">
  <g clip-path="url(#clip0_1456_91)">
    <path fill="#D9D9D9" d="M96 192h95v95H96z"/>
  </g>
  <g clip-path="url(#clip1_1456_91)">
    <path fill="#D9D9D9" d="M0 192h95v95H0z"/>
  </g>
  <g clip-path="url(#clip2_1456_91)">
    <path fill="#D9D9D9" d="M192 192h95v95h-95z"/>
  </g>
  <g clip-path="url(#clip3_1456_91)">
    <path fill="#D9D9D9" d="M288 192h95v95h-95z"/>
  </g>
  <g clip-path="url(#clip4_1456_91)">
    <path fill="#D9D9D9" d="M384 192h95v95h-95z"/>
  </g>
  <g clip-path="url(#clip5_1456_91)">
    <path fill="#D9D9D9" d="M480 192h95v95h-95z"/>
  </g>
  <g clip-path="url(#clip6_1456_91)">
    <path fill="#D9D9D9" d="M576 192h95v95h-95z"/>
  </g>
  <g clip-path="url(#clip7_1456_91)">
    <path fill="#D9D9D9" d="M672 192h95v95h-95z"/>
  </g>
  <g clip-path="url(#clip8_1456_91)">
    <path fill="#D9D9D9" d="M768 192h95v95h-95z"/>
  </g>
  <g clip-path="url(#clip9_1456_91)">
    <path fill="#D9D9D9" d="M864 192h95v95h-95z"/>
  </g>
  <g clip-path="url(#clip10_1456_91)">
    <path fill="#D9D9D9" d="M960 192h95v95h-95z"/>
  </g>
  <g clip-path="url(#clip11_1456_91)">
    <path fill="#D9D9D9" d="M1056 192h95v95h-95z"/>
  </g>
  <g clip-path="url(#clip12_1456_91)">
    <path fill="#D9D9D9" d="M1152 192h95v95h-95z"/>
  </g>
  <g clip-path="url(#clip13_1456_91)">
    <path fill="#D9D9D9" d="M1248 192h95v95h-95z"/>
  </g>
  <g clip-path="url(#clip14_1456_91)">
    <path fill="#D9D9D9" d="M1344 192h95v95h-95z"/>
  </g>
  <g clip-path="url(#clip15_1456_91)">
    <path fill="#D9D9D9" d="M96 288h95v95H96z"/>
  </g>
  <g clip-path="url(#clip16_1456_91)">
    <path fill="#D9D9D9" d="M0 288h95v95H0z"/>
  </g>
  <g clip-path="url(#clip17_1456_91)">
    <path fill="#D9D9D9" d="M192 288h95v95h-95z"/>
  </g>
  <g clip-path="url(#clip18_1456_91)">
    <path fill="#D9D9D9" d="M288 288h95v95h-95z"/>
  </g>
  <g clip-path="url(#clip19_1456_91)">
    <path fill="#D9D9D9" d="M384 288h95v95h-95z"/>
  </g>
  <g clip-path="url(#clip20_1456_91)">
    <path fill="#D9D9D9" d="M480 288h95v95h-95z"/>
  </g>
  <g clip-path="url(#clip21_1456_91)">
    <path fill="#D9D9D9" d="M576 288h95v95h-95z"/>
  </g>
  <g clip-path="url(#clip22_1456_91)">
    <path fill="#D9D9D9" d="M672 288h95v95h-95z"/>
  </g>
  <g clip-path="url(#clip23_1456_91)">
    <path fill="#D9D9D9" d="M768 288h95v95h-95z"/>
  </g>
  <g clip-path="url(#clip24_1456_91)">
    <path fill="#D9D9D9" d="M864 288h95v95h-95z"/>
  </g>
  <g clip-path="url(#clip25_1456_91)">
    <path fill="#D9D9D9" d="M960 288h95v95h-95z"/>
  </g>
  <g clip-path="url(#clip26_1456_91)">
    <path fill="#D9D9D9" d="M1056 288h95v95h-95z"/>
  </g>
  <g clip-path="url(#clip27_1456_91)">
    <path fill="#D9D9D9" d="M1152 288h95v95h-95z"/>
  </g>
  <g clip-path="url(#clip28_1456_91)">
    <path fill="#D9D9D9" d="M1248 288h95v95h-95z"/>
  </g>
  <g clip-path="url(#clip29_1456_91)">
    <path fill="#D9D9D9" d="M1344 288h95v95h-95z"/>
  </g>
  <g clip-path="url(#clip30_1456_91)">
    <path fill="#D9D9D9" d="M0 96h95v95H0z"/>
  </g>
  <g clip-path="url(#clip31_1456_91)">
    <path fill="#D9D9D9" d="M192 96h95v95h-95z"/>
  </g>
  <g clip-path="url(#clip32_1456_91)">
    <path fill="#D9D9D9" d="M1152 96h95v95h-95z"/>
  </g>
  <g clip-path="url(#clip33_1456_91)">
    <path fill="#D9D9D9" d="M1248 96h95v95h-95z"/>
  </g>
  <g clip-path="url(#clip34_1456_91)">
    <path fill="#D9D9D9" d="M96 0h95v95H96z"/>
  </g>
  <g clip-path="url(#clip35_1456_91)">
    <path fill="#D9D9D9" d="M1344 0h95v95h-95z"/>
  </g>
  <defs>
    <clipPath id="clip0_1456_91">
      <rect width="95.1" height="95.1" x="96" y="192" fill="#fff" rx="6"/>
    </clipPath>
    <clipPath id="clip1_1456_91">
      <rect width="95.1" height="95.1" y="192" fill="#fff" rx="6"/>
    </clipPath>
    <clipPath id="clip2_1456_91">
      <rect width="95.1" height="95.1" x="192" y="192" fill="#fff" rx="6"/>
    </clipPath>
    <clipPath id="clip3_1456_91">
      <rect width="95.1" height="95.1" x="288" y="192" fill="#fff" rx="6"/>
    </clipPath>
    <clipPath id="clip4_1456_91">
      <rect width="95.1" height="95.1" x="384" y="192" fill="#fff" rx="6"/>
    </clipPath>
    <clipPath id="clip5_1456_91">
      <rect width="95.1" height="95.1" x="480" y="192" fill="#fff" rx="6"/>
    </clipPath>
    <clipPath id="clip6_1456_91">
      <rect width="95.1" height="95.1" x="576" y="192" fill="#fff" rx="6"/>
    </clipPath>
    <clipPath id="clip7_1456_91">
      <rect width="95.1" height="95.1" x="672" y="192" fill="#fff" rx="6"/>
    </clipPath>
    <clipPath id="clip8_1456_91">
      <rect width="95.1" height="95.1" x="768" y="192" fill="#fff" rx="6"/>
    </clipPath>
    <clipPath id="clip9_1456_91">
      <rect width="95.1" height="95.1" x="864" y="192" fill="#fff" rx="6"/>
    </clipPath>
    <clipPath id="clip10_1456_91">
      <rect width="95.1" height="95.1" x="960" y="192" fill="#fff" rx="6"/>
    </clipPath>
    <clipPath id="clip11_1456_91">
      <rect width="95.1" height="95.1" x="1056" y="192" fill="#fff" rx="6"/>
    </clipPath>
    <clipPath id="clip12_1456_91">
      <rect width="95.1" height="95.1" x="1152" y="192" fill="#fff" rx="6"/>
    </clipPath>
    <clipPath id="clip13_1456_91">
      <rect width="95.1" height="95.1" x="1248" y="192" fill="#fff" rx="6"/>
    </clipPath>
    <clipPath id="clip14_1456_91">
      <rect width="95.1" height="95.1" x="1344" y="192" fill="#fff" rx="6"/>
    </clipPath>
    <clipPath id="clip15_1456_91">
      <rect width="95.1" height="95.1" x="96" y="288" fill="#fff" rx="6"/>
    </clipPath>
    <clipPath id="clip16_1456_91">
      <rect width="95.1" height="95.1" y="288" fill="#fff" rx="6"/>
    </clipPath>
    <clipPath id="clip17_1456_91">
      <rect width="95.1" height="95.1" x="192" y="288" fill="#fff" rx="6"/>
    </clipPath>
    <clipPath id="clip18_1456_91">
      <rect width="95.1" height="95.1" x="288" y="288" fill="#fff" rx="6"/>
    </clipPath>
    <clipPath id="clip19_1456_91">
      <rect width="95.1" height="95.1" x="384" y="288" fill="#fff" rx="6"/>
    </clipPath>
    <clipPath id="clip20_1456_91">
      <rect width="95.1" height="95.1" x="480" y="288" fill="#fff" rx="6"/>
    </clipPath>
    <clipPath id="clip21_1456_91">
      <rect width="95.1" height="95.1" x="576" y="288" fill="#fff" rx="6"/>
    </clipPath>
    <clipPath id="clip22_1456_91">
      <rect width="95.1" height="95.1" x="672" y="288" fill="#fff" rx="6"/>
    </clipPath>
    <clipPath id="clip23_1456_91">
      <rect width="95.1" height="95.1" x="768" y="288" fill="#fff" rx="6"/>
    </clipPath>
    <clipPath id="clip24_1456_91">
      <rect width="95.1" height="95.1" x="864" y="288" fill="#fff" rx="6"/>
    </clipPath>
    <clipPath id="clip25_1456_91">
      <rect width="95.1" height="95.1" x="960" y="288" fill="#fff" rx="6"/>
    </clipPath>
    <clipPath id="clip26_1456_91">
      <rect width="95.1" height="95.1" x="1056" y="288" fill="#fff" rx="6"/>
    </clipPath>
    <clipPath id="clip27_1456_91">
      <rect width="95.1" height="95.1" x="1152" y="288" fill="#fff" rx="6"/>
    </clipPath>
    <clipPath id="clip28_1456_91">
      <rect width="95.1" height="95.1" x="1248" y="288" fill="#fff" rx="6"/>
    </clipPath>
    <clipPath id="clip29_1456_91">
      <rect width="95.1" height="95.1" x="1344" y="288" fill="#fff" rx="6"/>
    </clipPath>
    <clipPath id="clip30_1456_91">
      <rect width="95.1" height="95.1" y="96" fill="#fff" rx="6"/>
    </clipPath>
    <clipPath id="clip31_1456_91">
      <rect width="95.1" height="95.1" x="192" y="96" fill="#fff" rx="6"/>
    </clipPath>
    <clipPath id="clip32_1456_91">
      <rect width="95.1" height="95.1" x="1152" y="96" fill="#fff" rx="6"/>
    </clipPath>
    <clipPath id="clip33_1456_91">
      <rect width="95.1" height="95.1" x="1248" y="96" fill="#fff" rx="6"/>
    </clipPath>
    <clipPath id="clip34_1456_91">
      <rect width="95.1" height="95.1" x="96" fill="#fff" rx="6"/>
    </clipPath>
    <clipPath id="clip35_1456_91">
      <rect width="95.1" height="95.1" x="1344" fill="#fff" rx="6"/>
    </clipPath>
  </defs>
</svg>
