<svg xmlns="http://www.w3.org/2000/svg" width="390" height="223" fill="none">
  <g clip-path="url(#clip0_7712_24933)">
    <path fill="#D9D9D9" d="M-.4 111.8h55.3v55.3H-.4z"/>
  </g>
  <g clip-path="url(#clip1_7712_24933)">
    <path fill="#D9D9D9" d="M55.4 111.8h55.3v55.3H55.4z"/>
  </g>
  <g clip-path="url(#clip2_7712_24933)">
    <path fill="#D9D9D9" d="M111.2 111.8h55.3v55.3h-55.3z"/>
  </g>
  <g clip-path="url(#clip3_7712_24933)">
    <path fill="#D9D9D9" d="M167 111.8h55.3v55.3H167z"/>
  </g>
  <g clip-path="url(#clip4_7712_24933)">
    <path fill="#D9D9D9" d="M222.9 111.8h55.3v55.3h-55.3z"/>
  </g>
  <g clip-path="url(#clip5_7712_24933)">
    <path fill="#D9D9D9" d="M278.7 111.8H334v55.3h-55.3z"/>
  </g>
  <g clip-path="url(#clip6_7712_24933)">
    <path fill="#D9D9D9" d="M334.5 111.8h55.3v55.3h-55.3z"/>
  </g>
  <g clip-path="url(#clip7_7712_24933)">
    <path fill="#D9D9D9" d="M-.4 167.6h55.3v55.3H-.4z"/>
  </g>
  <g clip-path="url(#clip8_7712_24933)">
    <path fill="#D9D9D9" d="M55.4 167.6h55.3v55.3H55.4z"/>
  </g>
  <g clip-path="url(#clip9_7712_24933)">
    <path fill="#D9D9D9" d="M111.2 167.6h55.3v55.3h-55.3z"/>
  </g>
  <g clip-path="url(#clip10_7712_24933)">
    <path fill="#D9D9D9" d="M167 167.6h55.3v55.3H167z"/>
  </g>
  <g clip-path="url(#clip11_7712_24933)">
    <path fill="#D9D9D9" d="M222.9 167.6h55.3v55.3h-55.3z"/>
  </g>
  <g clip-path="url(#clip12_7712_24933)">
    <path fill="#D9D9D9" d="M278.7 167.6H334v55.3h-55.3z"/>
  </g>
  <g clip-path="url(#clip13_7712_24933)">
    <path fill="#D9D9D9" d="M334.5 167.6h55.3v55.3h-55.3z"/>
  </g>
  <g clip-path="url(#clip14_7712_24933)">
    <path fill="#D9D9D9" d="M55.4 56h55.3v55.3H55.4z"/>
  </g>
  <g clip-path="url(#clip15_7712_24933)">
    <path fill="#D9D9D9" d="M278.6 56h55.3v55.3h-55.3z"/>
  </g>
  <g clip-path="url(#clip16_7712_24933)">
    <path fill="#D9D9D9" d="M-.4.2h55.3v55.3H-.4z"/>
  </g>
  <g clip-path="url(#clip17_7712_24933)">
    <path fill="#D9D9D9" d="M334.5.2h55.3v55.3h-55.3z"/>
  </g>
  <defs>
    <clipPath id="clip0_7712_24933">
      <rect width="55.3" height="55.3" x="-.4" y="111.8" fill="#fff" rx="4"/>
    </clipPath>
    <clipPath id="clip1_7712_24933">
      <rect width="55.3" height="55.3" x="55.4" y="111.8" fill="#fff" rx="4"/>
    </clipPath>
    <clipPath id="clip2_7712_24933">
      <rect width="55.3" height="55.3" x="111.2" y="111.8" fill="#fff" rx="4"/>
    </clipPath>
    <clipPath id="clip3_7712_24933">
      <rect width="55.3" height="55.3" x="167" y="111.8" fill="#fff" rx="4"/>
    </clipPath>
    <clipPath id="clip4_7712_24933">
      <rect width="55.3" height="55.3" x="222.8" y="111.8" fill="#fff" rx="4"/>
    </clipPath>
    <clipPath id="clip5_7712_24933">
      <rect width="55.3" height="55.3" x="278.7" y="111.8" fill="#fff" rx="4"/>
    </clipPath>
    <clipPath id="clip6_7712_24933">
      <rect width="55.3" height="55.3" x="334.5" y="111.8" fill="#fff" rx="4"/>
    </clipPath>
    <clipPath id="clip7_7712_24933">
      <rect width="55.3" height="55.3" x="-.4" y="167.6" fill="#fff" rx="4"/>
    </clipPath>
    <clipPath id="clip8_7712_24933">
      <rect width="55.3" height="55.3" x="55.4" y="167.6" fill="#fff" rx="4"/>
    </clipPath>
    <clipPath id="clip9_7712_24933">
      <rect width="55.3" height="55.3" x="111.2" y="167.6" fill="#fff" rx="4"/>
    </clipPath>
    <clipPath id="clip10_7712_24933">
      <rect width="55.3" height="55.3" x="167" y="167.6" fill="#fff" rx="4"/>
    </clipPath>
    <clipPath id="clip11_7712_24933">
      <rect width="55.3" height="55.3" x="222.8" y="167.6" fill="#fff" rx="4"/>
    </clipPath>
    <clipPath id="clip12_7712_24933">
      <rect width="55.3" height="55.3" x="278.7" y="167.6" fill="#fff" rx="4"/>
    </clipPath>
    <clipPath id="clip13_7712_24933">
      <rect width="55.3" height="55.3" x="334.5" y="167.6" fill="#fff" rx="4"/>
    </clipPath>
    <clipPath id="clip14_7712_24933">
      <rect width="55.3" height="55.3" x="55.4" y="56" fill="#fff" rx="4"/>
    </clipPath>
    <clipPath id="clip15_7712_24933">
      <rect width="55.3" height="55.3" x="278.6" y="56" fill="#fff" rx="4"/>
    </clipPath>
    <clipPath id="clip16_7712_24933">
      <rect width="55.3" height="55.3" x="-.4" y=".2" fill="#fff" rx="4"/>
    </clipPath>
    <clipPath id="clip17_7712_24933">
      <rect width="55.3" height="55.3" x="334.5" y=".2" fill="#fff" rx="4"/>
    </clipPath>
  </defs>
</svg>
