<svg xmlns="http://www.w3.org/2000/svg" width="672" height="384" fill="none">
  <g clip-path="url(#clip0_1472_36)">
    <path fill="#D9D9D9" d="M.9 192H96v95.1H.9z"/>
  </g>
  <g clip-path="url(#clip1_1472_36)">
    <path fill="#D9D9D9" d="M96.9 192H192v95.1H96.9z"/>
  </g>
  <g clip-path="url(#clip2_1472_36)">
    <path fill="#D9D9D9" d="M192.8 192h95.1v95.1h-95.1z"/>
  </g>
  <g clip-path="url(#clip3_1472_36)">
    <path fill="#D9D9D9" d="M288.8 192h95.1v95.1h-95.1z"/>
  </g>
  <g clip-path="url(#clip4_1472_36)">
    <path fill="#D9D9D9" d="M384.8 192h95.1v95.1h-95.1z"/>
  </g>
  <g clip-path="url(#clip5_1472_36)">
    <path fill="#D9D9D9" d="M480.8 192h95.1v95.1h-95.1z"/>
  </g>
  <g clip-path="url(#clip6_1472_36)">
    <path fill="#D9D9D9" d="M576.8 192h95.1v95.1h-95.1z"/>
  </g>
  <g clip-path="url(#clip7_1472_36)">
    <path fill="#D9D9D9" d="M.9 288H96v95.1H.9z"/>
  </g>
  <g clip-path="url(#clip8_1472_36)">
    <path fill="#D9D9D9" d="M96.9 288H192v95.1H96.9z"/>
  </g>
  <g clip-path="url(#clip9_1472_36)">
    <path fill="#D9D9D9" d="M192.8 288h95.1v95.1h-95.1z"/>
  </g>
  <g clip-path="url(#clip10_1472_36)">
    <path fill="#D9D9D9" d="M288.8 288h95.1v95.1h-95.1z"/>
  </g>
  <g clip-path="url(#clip11_1472_36)">
    <path fill="#D9D9D9" d="M384.8 288h95.1v95.1h-95.1z"/>
  </g>
  <g clip-path="url(#clip12_1472_36)">
    <path fill="#D9D9D9" d="M480.8 288h95.1v95.1h-95.1z"/>
  </g>
  <g clip-path="url(#clip13_1472_36)">
    <path fill="#D9D9D9" d="M576.8 288h95.1v95.1h-95.1z"/>
  </g>
  <g clip-path="url(#clip14_1472_36)">
    <path fill="#D9D9D9" d="M.9 96H96v95.1H.9z"/>
  </g>
  <g clip-path="url(#clip15_1472_36)">
    <path fill="#D9D9D9" d="M384.8 96h95.1v95.1h-95.1z"/>
  </g>
  <g clip-path="url(#clip16_1472_36)">
    <path fill="#D9D9D9" d="M480.8 96h95.1v95.1h-95.1z"/>
  </g>
  <g clip-path="url(#clip17_1472_36)">
    <path fill="#D9D9D9" d="M576.8 0h95.1v95.1h-95.1z"/>
  </g>
  <defs>
    <clipPath id="clip0_1472_36">
      <rect width="95.1" height="95.1" x=".9" y="192" fill="#fff" rx="6"/>
    </clipPath>
    <clipPath id="clip1_1472_36">
      <rect width="95.1" height="95.1" x="96.9" y="192" fill="#fff" rx="6"/>
    </clipPath>
    <clipPath id="clip2_1472_36">
      <rect width="95.1" height="95.1" x="192.8" y="192" fill="#fff" rx="6"/>
    </clipPath>
    <clipPath id="clip3_1472_36">
      <rect width="95.1" height="95.1" x="288.8" y="192" fill="#fff" rx="6"/>
    </clipPath>
    <clipPath id="clip4_1472_36">
      <rect width="95.1" height="95.1" x="384.8" y="192" fill="#fff" rx="6"/>
    </clipPath>
    <clipPath id="clip5_1472_36">
      <rect width="95.1" height="95.1" x="480.8" y="192" fill="#fff" rx="6"/>
    </clipPath>
    <clipPath id="clip6_1472_36">
      <rect width="95.1" height="95.1" x="576.8" y="192" fill="#fff" rx="6"/>
    </clipPath>
    <clipPath id="clip7_1472_36">
      <rect width="95.1" height="95.1" x=".9" y="288" fill="#fff" rx="6"/>
    </clipPath>
    <clipPath id="clip8_1472_36">
      <rect width="95.1" height="95.1" x="96.9" y="288" fill="#fff" rx="6"/>
    </clipPath>
    <clipPath id="clip9_1472_36">
      <rect width="95.1" height="95.1" x="192.8" y="288" fill="#fff" rx="6"/>
    </clipPath>
    <clipPath id="clip10_1472_36">
      <rect width="95.1" height="95.1" x="288.8" y="288" fill="#fff" rx="6"/>
    </clipPath>
    <clipPath id="clip11_1472_36">
      <rect width="95.1" height="95.1" x="384.8" y="288" fill="#fff" rx="6"/>
    </clipPath>
    <clipPath id="clip12_1472_36">
      <rect width="95.1" height="95.1" x="480.8" y="288" fill="#fff" rx="6"/>
    </clipPath>
    <clipPath id="clip13_1472_36">
      <rect width="95.1" height="95.1" x="576.8" y="288" fill="#fff" rx="6"/>
    </clipPath>
    <clipPath id="clip14_1472_36">
      <path fill="#fff" d="M.9 96h95v95H1z"/>
    </clipPath>
    <clipPath id="clip15_1472_36">
      <rect width="95.1" height="95.1" x="384.8" y="96" fill="#fff" rx="6"/>
    </clipPath>
    <clipPath id="clip16_1472_36">
      <rect width="95.1" height="95.1" x="480.8" y="96" fill="#fff" rx="6"/>
    </clipPath>
    <clipPath id="clip17_1472_36">
      <rect width="95.1" height="95.1" x="576.8" fill="#fff" rx="6"/>
    </clipPath>
  </defs>
</svg>
