<svg xmlns="http://www.w3.org/2000/svg" width="1439" height="384" fill="none">
  <g clip-path="url(#clip0_2176_13463)">
    <path fill="#D9D9D9" d="M96 192h95.1v95.1H96z"/>
  </g>
  <g clip-path="url(#clip1_2176_13463)">
    <path fill="#D9D9D9" d="M0 192h95.1v95.1H0z"/>
  </g>
  <g clip-path="url(#clip2_2176_13463)">
    <path fill="#D9D9D9" d="M192 192h95.1v95.1H192z"/>
  </g>
  <g clip-path="url(#clip3_2176_13463)">
    <path fill="#D9D9D9" d="M288 192h95.1v95.1H288z"/>
  </g>
  <g clip-path="url(#clip4_2176_13463)">
    <path fill="#D9D9D9" d="M384 192h95.1v95.1H384z"/>
  </g>
  <g clip-path="url(#clip5_2176_13463)">
    <path fill="#D9D9D9" d="M479.9 192H575v95.1h-95.1z"/>
  </g>
  <g clip-path="url(#clip6_2176_13463)">
    <path fill="#D9D9D9" d="M575.9 192H671v95.1h-95.1z"/>
  </g>
  <g clip-path="url(#clip7_2176_13463)">
    <path fill="#D9D9D9" d="M671.9 192H767v95.1h-95.1z"/>
  </g>
  <g clip-path="url(#clip8_2176_13463)">
    <path fill="#D9D9D9" d="M767.9 192H863v95.1h-95.1z"/>
  </g>
  <g clip-path="url(#clip9_2176_13463)">
    <path fill="#D9D9D9" d="M863.9 192H959v95.1h-95.1z"/>
  </g>
  <g clip-path="url(#clip10_2176_13463)">
    <path fill="#D9D9D9" d="M959.8 192h95.1v95.1h-95.1z"/>
  </g>
  <g clip-path="url(#clip11_2176_13463)">
    <path fill="#D9D9D9" d="M1055.8 192h95.1v95.1h-95.1z"/>
  </g>
  <g clip-path="url(#clip12_2176_13463)">
    <path fill="#D9D9D9" d="M1151.8 192h95.1v95.1h-95.1z"/>
  </g>
  <g clip-path="url(#clip13_2176_13463)">
    <path fill="#D9D9D9" d="M1247.8 192h95.1v95.1h-95.1z"/>
  </g>
  <g clip-path="url(#clip14_2176_13463)">
    <path fill="#D9D9D9" d="M1343.8 192h95.1v95.1h-95.1z"/>
  </g>
  <g clip-path="url(#clip15_2176_13463)">
    <path fill="#D9D9D9" d="M96 288h95.1v95.1H96z"/>
  </g>
  <g clip-path="url(#clip16_2176_13463)">
    <path fill="#D9D9D9" d="M0 288h95.1v95.1H0z"/>
  </g>
  <g clip-path="url(#clip17_2176_13463)">
    <path fill="#D9D9D9" d="M192 288h95.1v95.1H192z"/>
  </g>
  <g clip-path="url(#clip18_2176_13463)">
    <path fill="#D9D9D9" d="M288 288h95.1v95.1H288z"/>
  </g>
  <g clip-path="url(#clip19_2176_13463)">
    <path fill="#D9D9D9" d="M384 288h95.1v95.1H384z"/>
  </g>
  <g clip-path="url(#clip20_2176_13463)">
    <path fill="#D9D9D9" d="M479.9 288H575v95.1h-95.1z"/>
  </g>
  <g clip-path="url(#clip21_2176_13463)">
    <path fill="#D9D9D9" d="M575.9 288H671v95.1h-95.1z"/>
  </g>
  <g clip-path="url(#clip22_2176_13463)">
    <path fill="#D9D9D9" d="M671.9 288H767v95.1h-95.1z"/>
  </g>
  <g clip-path="url(#clip23_2176_13463)">
    <path fill="#D9D9D9" d="M767.9 288H863v95.1h-95.1z"/>
  </g>
  <g clip-path="url(#clip24_2176_13463)">
    <path fill="#D9D9D9" d="M863.9 288H959v95.1h-95.1z"/>
  </g>
  <g clip-path="url(#clip25_2176_13463)">
    <path fill="#D9D9D9" d="M959.8 288h95.1v95.1h-95.1z"/>
  </g>
  <g clip-path="url(#clip26_2176_13463)">
    <path fill="#D9D9D9" d="M1055.8 288h95.1v95.1h-95.1z"/>
  </g>
  <g clip-path="url(#clip27_2176_13463)">
    <path fill="#D9D9D9" d="M1151.8 288h95.1v95.1h-95.1z"/>
  </g>
  <g clip-path="url(#clip28_2176_13463)">
    <path fill="#D9D9D9" d="M1247.8 288h95.1v95.1h-95.1z"/>
  </g>
  <g clip-path="url(#clip29_2176_13463)">
    <path fill="#D9D9D9" d="M1343.8 288h95.1v95.1h-95.1z"/>
  </g>
  <g clip-path="url(#clip30_2176_13463)">
    <path fill="#D9D9D9" d="M96 96h95.1v95.1H96z"/>
  </g>
  <g clip-path="url(#clip31_2176_13463)">
    <path fill="#D9D9D9" d="M1151.8 96h95.1v95.1h-95.1z"/>
  </g>
  <g clip-path="url(#clip32_2176_13463)">
    <path fill="#D9D9D9" d="M1247.8 96h95.1v95.1h-95.1z"/>
  </g>
  <g clip-path="url(#clip33_2176_13463)">
    <path fill="#D9D9D9" d="M1343.8 0h95.1v95.1h-95.1z"/>
  </g>
  <defs>
    <clipPath id="clip0_2176_13463">
      <rect width="95.1" height="95.1" x="96" y="192" fill="#fff" rx="6"/>
    </clipPath>
    <clipPath id="clip1_2176_13463">
      <rect width="95.1" height="95.1" y="192" fill="#fff" rx="6"/>
    </clipPath>
    <clipPath id="clip2_2176_13463">
      <rect width="95.1" height="95.1" x="192" y="192" fill="#fff" rx="6"/>
    </clipPath>
    <clipPath id="clip3_2176_13463">
      <rect width="95.1" height="95.1" x="288" y="192" fill="#fff" rx="6"/>
    </clipPath>
    <clipPath id="clip4_2176_13463">
      <rect width="95.1" height="95.1" x="384" y="192" fill="#fff" rx="6"/>
    </clipPath>
    <clipPath id="clip5_2176_13463">
      <rect width="95.1" height="95.1" x="479.9" y="192" fill="#fff" rx="6"/>
    </clipPath>
    <clipPath id="clip6_2176_13463">
      <rect width="95.1" height="95.1" x="575.9" y="192" fill="#fff" rx="6"/>
    </clipPath>
    <clipPath id="clip7_2176_13463">
      <rect width="95.1" height="95.1" x="671.9" y="192" fill="#fff" rx="6"/>
    </clipPath>
    <clipPath id="clip8_2176_13463">
      <rect width="95.1" height="95.1" x="767.9" y="192" fill="#fff" rx="6"/>
    </clipPath>
    <clipPath id="clip9_2176_13463">
      <rect width="95.1" height="95.1" x="863.9" y="192" fill="#fff" rx="6"/>
    </clipPath>
    <clipPath id="clip10_2176_13463">
      <rect width="95.1" height="95.1" x="959.8" y="192" fill="#fff" rx="6"/>
    </clipPath>
    <clipPath id="clip11_2176_13463">
      <rect width="95.1" height="95.1" x="1055.8" y="192" fill="#fff" rx="6"/>
    </clipPath>
    <clipPath id="clip12_2176_13463">
      <rect width="95.1" height="95.1" x="1151.8" y="192" fill="#fff" rx="6"/>
    </clipPath>
    <clipPath id="clip13_2176_13463">
      <rect width="95.1" height="95.1" x="1247.8" y="192" fill="#fff" rx="6"/>
    </clipPath>
    <clipPath id="clip14_2176_13463">
      <rect width="95.1" height="95.1" x="1343.8" y="192" fill="#fff" rx="6"/>
    </clipPath>
    <clipPath id="clip15_2176_13463">
      <rect width="95.1" height="95.1" x="96" y="288" fill="#fff" rx="6"/>
    </clipPath>
    <clipPath id="clip16_2176_13463">
      <rect width="95.1" height="95.1" y="288" fill="#fff" rx="6"/>
    </clipPath>
    <clipPath id="clip17_2176_13463">
      <rect width="95.1" height="95.1" x="192" y="288" fill="#fff" rx="6"/>
    </clipPath>
    <clipPath id="clip18_2176_13463">
      <rect width="95.1" height="95.1" x="288" y="288" fill="#fff" rx="6"/>
    </clipPath>
    <clipPath id="clip19_2176_13463">
      <rect width="95.1" height="95.1" x="384" y="288" fill="#fff" rx="6"/>
    </clipPath>
    <clipPath id="clip20_2176_13463">
      <rect width="95.1" height="95.1" x="479.9" y="288" fill="#fff" rx="6"/>
    </clipPath>
    <clipPath id="clip21_2176_13463">
      <rect width="95.1" height="95.1" x="575.9" y="288" fill="#fff" rx="6"/>
    </clipPath>
    <clipPath id="clip22_2176_13463">
      <rect width="95.1" height="95.1" x="671.9" y="288" fill="#fff" rx="6"/>
    </clipPath>
    <clipPath id="clip23_2176_13463">
      <rect width="95.1" height="95.1" x="767.9" y="288" fill="#fff" rx="6"/>
    </clipPath>
    <clipPath id="clip24_2176_13463">
      <rect width="95.1" height="95.1" x="863.9" y="288" fill="#fff" rx="6"/>
    </clipPath>
    <clipPath id="clip25_2176_13463">
      <rect width="95.1" height="95.1" x="959.8" y="288" fill="#fff" rx="6"/>
    </clipPath>
    <clipPath id="clip26_2176_13463">
      <rect width="95.1" height="95.1" x="1055.8" y="288" fill="#fff" rx="6"/>
    </clipPath>
    <clipPath id="clip27_2176_13463">
      <rect width="95.1" height="95.1" x="1151.8" y="288" fill="#fff" rx="6"/>
    </clipPath>
    <clipPath id="clip28_2176_13463">
      <rect width="95.1" height="95.1" x="1247.8" y="288" fill="#fff" rx="6"/>
    </clipPath>
    <clipPath id="clip29_2176_13463">
      <rect width="95.1" height="95.1" x="1343.8" y="288" fill="#fff" rx="6"/>
    </clipPath>
    <clipPath id="clip30_2176_13463">
      <rect width="95.1" height="95.1" x="96" y="96" fill="#fff" rx="6"/>
    </clipPath>
    <clipPath id="clip31_2176_13463">
      <rect width="95.1" height="95.1" x="1151.8" y="96" fill="#fff" rx="6"/>
    </clipPath>
    <clipPath id="clip32_2176_13463">
      <rect width="95.1" height="95.1" x="1247.8" y="96" fill="#fff" rx="6"/>
    </clipPath>
    <clipPath id="clip33_2176_13463">
      <rect width="95.1" height="95.1" x="1343.8" fill="#fff" rx="6"/>
    </clipPath>
  </defs>
</svg>
