<svg xmlns="http://www.w3.org/2000/svg" width="84" height="72" fill="none" viewBox="0 0 84 72">
  <path fill="#fff" d="M43.68 1.2c-1.61-.84-3.72-.55-5.86.7a17.28 17.28 0 0 0-5.75 6.02 18 18 0 0 0-2.63 8c-.13 2.55.55 4.62 1.99 5.74v.01l.02.01 7.02 4.2.21.13c1.7.96 3.88.6 6.01-.65a16.9 16.9 0 0 0 5.37-5.4l2.35 1.34-7.66 6.99a11.08 11.08 0 0 0-4.04-.73c-1.93 0-3.7.45-4.98 1.17-1.16.66-1.98 1.57-2.12 2.64l-.02.2v.23l-.02 4.62v.01c.03.7.36 1.36.92 1.94l-9.2 8.39-2.9-1.67a16.48 16.48 0 0 0 1.65-6.66c.03-2.48-.76-4.55-2.46-5.53a4.08 4.08 0 0 0-.19-.1l-6.76-3.96c-1.62-.84-3.73-.55-5.86.7a17.28 17.28 0 0 0-5.75 6.02 18 18 0 0 0-2.64 8c-.13 2.54.55 4.62 1.99 5.74l.01.01h.02l6.97 4.17.24.15c1.7.98 3.89.63 6.02-.63A16.9 16.9 0 0 0 21 47.59l11.67 6.69a17.07 17.07 0 0 0-1.75 6.36c-.13 2.54.55 4.61 1.99 5.73l.01.01.01.01 6.84 4.1.22.12.16.1c1.7.98 3.89.62 6.02-.64a17.43 17.43 0 0 0 5.92-6.3 17.43 17.43 0 0 0 2.5-8.27c.02-2.4-.73-4.43-2.33-5.44l-.14-.09h-.02l-.05-.04-6.88-4.01c-1.62-.84-3.73-.56-5.86.7a16.76 16.76 0 0 0-5.23 5.18l-6.19-3.55 9.17-8.37c1.04.36 2.22.56 3.43.58 1.79.02 3.54-.34 4.89-1.03 1.34-.68 2.23-1.66 2.39-2.77v-.03l.06-4.74c-.44-.6-.6-1.33-.88-2.01 0 0 4.84-4.15 8.06-7.09l6.73 3.86A17.06 17.06 0 0 0 60 33c-.14 2.54.55 4.62 1.99 5.74l.02.01 6.91 4.13h.01l.3.2c1.7.97 3.88.62 6.02-.64a17.43 17.43 0 0 0 5.91-6.3 17.43 17.43 0 0 0 2.5-8.27c.02-2.48-.77-4.56-2.46-5.54l-.1-.05-6.85-4h-.01c-1.61-.84-3.72-.55-5.86.7a16.76 16.76 0 0 0-5.23 5.19l-11.7-6.71a16.48 16.48 0 0 0 1.65-6.67c.03-2.48-.77-4.55-2.46-5.53a4.08 4.08 0 0 0-.42-.21l-6.53-3.84h-.01Z"/>
  <path fill="#2483D6" fill-rule="evenodd" d="M46.36 53.18c1.57-.96 3.2-1.27 4.44-.54 1.26.72 1.8 2.28 1.76 4.12-.05 1.85-.7 4.05-1.92 6.17a13.48 13.48 0 0 1-4.38 4.75c-1.57.96-3.2 1.26-4.45.54-1.25-.73-1.8-2.29-1.75-4.12.05-1.85.7-4.05 1.92-6.17a13.48 13.48 0 0 1 4.38-4.75Zm4.2-.1c-1.02-.6-2.44-.4-3.94.53-1.5.91-3.02 2.5-4.21 4.57a12.98 12.98 0 0 0-1.85 5.93c-.05 1.76.48 3.09 1.5 3.67 1.02.6 2.43.39 3.93-.53s3.02-2.5 4.21-4.57c1.2-2.06 1.81-4.18 1.86-5.93.04-1.77-.49-3.09-1.5-3.68Z" clip-rule="evenodd"/>
  <path fill="#2483D6" fill-rule="evenodd" d="M75.44 25.54c1.56-.96 3.19-1.26 4.44-.54 1.25.72 1.8 2.28 1.75 4.12-.04 1.85-.7 4.05-1.92 6.17a13.48 13.48 0 0 1-4.38 4.75c-1.57.96-3.2 1.26-4.44.54-1.26-.72-1.8-2.28-1.76-4.12.05-1.85.7-4.05 1.92-6.17a13.48 13.48 0 0 1 4.39-4.75Zm4.2-.1c-1.03-.6-2.44-.4-3.94.53-1.5.91-3.02 2.5-4.21 4.57a12.98 12.98 0 0 0-1.86 5.93c-.04 1.76.49 3.09 1.5 3.68 1.03.59 2.44.38 3.94-.54 1.5-.91 3.02-2.5 4.21-4.57 1.2-2.06 1.8-4.18 1.85-5.93.05-1.76-.48-3.09-1.5-3.68Z" clip-rule="evenodd"/>
  <path fill="#2483D6" fill-rule="evenodd" d="M37.82 1.9c2.14-1.25 4.25-1.54 5.86-.7h.01l6.52 3.85c.15.06.3.13.43.21 1.55.9 2.35 2.71 2.45 4.91.1 2.16-.45 4.73-1.65 7.28l11.72 6.72a16.76 16.76 0 0 1 5.22-5.19c2.14-1.25 4.25-1.54 5.86-.7h.01l6.85 4 .1.05c1.7.98 2.48 3.06 2.46 5.54a17.43 17.43 0 0 1-2.5 8.27 17.43 17.43 0 0 1-5.91 6.3c-2.14 1.26-4.33 1.61-6.03.63a4.1 4.1 0 0 1-.3-.19l-6.9-4.13H62l-.01-.01c-1.44-1.12-2.12-3.2-2-5.74.11-2.01.73-4.22 1.75-6.35l-6.73-3.86-7.82 7.16a2.78 2.78 0 0 1 .64 1.94l-.06 4.74v.03c-.16 1.1-1.04 2.09-2.39 2.77-1.35.69-3.1 1.05-4.89 1.03l-.47-.02a11.08 11.08 0 0 1-2.96-.56l-9.17 8.37 6.2 3.55a16.76 16.76 0 0 1 5.22-5.18c2.13-1.26 4.24-1.54 5.85-.7h.01l6.88 4v.01l.07.04c1.7.98 2.49 3.06 2.46 5.53a17.43 17.43 0 0 1-2.5 8.28 17.43 17.43 0 0 1-5.9 6.3c-2.14 1.25-4.34 1.6-6.03.63a4.07 4.07 0 0 1-.37-.24v.01l-6.84-4.09h-.02l-.01-.01c-1.44-1.13-2.12-3.2-1.99-5.74.1-2.02.73-4.23 1.75-6.36L21 47.59a16.63 16.63 0 0 1-5.64 5.57c-2.05 1.13-4.13 1.41-5.75.47l-.25-.15-6.96-4.16-.02-.01c-1.45-1.13-2.13-3.2-2-5.75a18 18 0 0 1 2.64-8c1.55-2.6 3.6-4.76 5.75-6.01 2.13-1.26 4.24-1.55 5.85-.71h.01l6.76 3.95.2.1c1.55.9 2.34 2.73 2.45 4.94.1 2.15-.46 4.7-1.65 7.26l2.9 1.67 9.2-8.4a2.99 2.99 0 0 1-.92-1.93v-.01l.02-4.63v-.1c0-1.2.86-2.23 2.14-2.96a10.33 10.33 0 0 1 4.99-1.17c1.5 0 2.88.27 4.03.73l7.66-6.99-2.35-1.35a16.64 16.64 0 0 1-5.63 5.56c-2.05 1.14-4.14 1.43-5.76.49a4.05 4.05 0 0 1-.2-.12l-7.02-4.2h-.01l-.01-.02c-1.44-1.12-2.12-3.2-1.99-5.73a18 18 0 0 1 2.64-8.01c1.55-2.6 3.6-4.75 5.74-6.01Zm14.05 48.5c-1.47-.85-3.46-.58-5.52.63a16.94 16.94 0 0 0-5.73 6.12 16.93 16.93 0 0 0-2.43 8.03c-.03 2.4.74 4.24 2.2 5.1 1.48.84 3.47.58 5.53-.64a16.94 16.94 0 0 0 5.73-6.11c1.6-2.78 2.41-5.64 2.44-8.03.02-2.4-.75-4.25-2.22-5.1Zm-6.94-4.04c-1.4-.73-3.31-.52-5.37.7a16.79 16.79 0 0 0-5.57 5.83 17.5 17.5 0 0 0-2.57 7.78c-.13 2.45.54 4.32 1.8 5.3l5.43 3.26a7.57 7.57 0 0 1-.96-4.06c.02-2.48.86-5.43 2.5-8.27a17.43 17.43 0 0 1 5.9-6.3 7.5 7.5 0 0 1 4.09-1.18l-5.25-3.06Zm-28.69-4.22c-.04-.02-.14-.04-.32.07-.17.1-.36.3-.5.53-.14.25-.2.5-.21.7 0 .2.06.29.1.31L32.9 53.83a20.93 20.93 0 0 1 .92-1.61L16.24 42.14Zm4.95-8.88c-1.45-.76-3.38-.48-5.38.7a16.94 16.94 0 0 0-5.73 6.12 16.93 16.93 0 0 0-2.43 8.02c-.03 2.4.74 4.25 2.2 5.1 1.42.81 3.3.6 5.26-.48a16.12 16.12 0 0 0 5.46-5.38l-1.03-.59a12.6 12.6 0 0 1-4.1 4.01c-1.47.83-2.99 1.06-4.17.38-1.25-.72-1.8-2.28-1.75-4.12.05-1.85.7-4.05 1.92-6.17a13.48 13.48 0 0 1 4.38-4.74c1.57-.96 3.2-1.27 4.45-.55 1.1.64 1.66 1.94 1.74 3.5.08 1.53-.3 3.35-1.1 5.19l1.04.59a15.42 15.42 0 0 0 1.59-7c-.1-2.1-.86-3.73-2.2-4.51l-.08-.04-.07-.03Zm-6.8-3.98c-1.4-.72-3.31-.51-5.37.7a16.79 16.79 0 0 0-5.57 5.83A17.5 17.5 0 0 0 .88 43.6c-.13 2.45.54 4.33 1.8 5.3l5.42 3.25a7.58 7.58 0 0 1-.95-4.04c.02-2.49.86-5.44 2.5-8.27a17.43 17.43 0 0 1 5.9-6.3 7.5 7.5 0 0 1 4.08-1.19l-5.24-3.06ZM20.02 36c-1.02-.6-2.44-.39-3.94.53s-3.02 2.51-4.2 4.57a12.98 12.98 0 0 0-1.86 5.94c-.05 1.76.48 3.08 1.5 3.67.96.55 2.27.4 3.68-.39a12.1 12.1 0 0 0 3.9-3.82l-4.04-2.31c-.26-.16-.36-.46-.35-.76a2 2 0 0 1 .28-.94 2 2 0 0 1 .67-.71c.26-.15.57-.22.83-.07L20.48 44a11.3 11.3 0 0 0 1.03-4.9c-.07-1.48-.6-2.57-1.5-3.1Zm16.87 1.13c-.15-.04-.24-.03-.29 0l-.04.02v.01l-10.81 9.86 1.69.97 10.44-9.52c.03-.04.07-.14.02-.33a1.5 1.5 0 0 0-.39-.62 1.5 1.5 0 0 0-.62-.39Zm44.06-14.36c-1.47-.85-3.46-.59-5.52.63a16.94 16.94 0 0 0-5.74 6.12 16.94 16.94 0 0 0-2.43 8.02c-.02 2.4.74 4.25 2.21 5.1 1.48.85 3.46.58 5.53-.63a16.94 16.94 0 0 0 5.73-6.12c1.6-2.77 2.4-5.64 2.43-8.03.02-2.4-.74-4.24-2.21-5.1ZM74 18.72c-1.4-.73-3.32-.52-5.37.7a16.79 16.79 0 0 0-5.58 5.83 17.5 17.5 0 0 0-2.56 7.78c-.13 2.45.54 4.32 1.79 5.3l5.43 3.25a7.6 7.6 0 0 1-.96-4.04c.02-2.49.86-5.44 2.5-8.27a17.43 17.43 0 0 1 5.91-6.3 7.5 7.5 0 0 1 4.08-1.2l-5.24-3.05ZM34.07 36.41c.03.55.3 1.11.8 1.62l1.35-1.24c.21-.2.52-.22.8-.14.3.08.6.27.84.52a2 2 0 0 1 .52.83c.07.25.07.53-.08.74l-.07.08-.74.68c.78.24 1.65.39 2.55.44l.46.02c1.72.02 3.4-.33 4.66-.97 1.26-.65 1.98-1.51 2.11-2.39l.05-3.33a4.88 4.88 0 0 1-1.62 1.4 10.33 10.33 0 0 1-4.98 1.16c-1.94 0-3.7-.44-4.99-1.17-.7-.39-1.27-.88-1.64-1.43l-.02 3.18Zm6.65-8.35c-1.87 0-3.54.43-4.74 1.1-1.18.67-1.85 1.55-1.89 2.46v.17c.05.91.72 1.78 1.89 2.44 1.2.68 2.87 1.1 4.74 1.1 1.86 0 3.54-.42 4.74-1.1 1.2-.68 1.88-1.59 1.88-2.53 0-.94-.68-1.85-1.88-2.53a9.83 9.83 0 0 0-4.74-1.1Zm13.42-7.38c-.15-.04-.24-.02-.3 0l-.03.03-8.55 7.8.44.22c.44.25.83.54 1.15.85l8.27-7.56.03-.04c.02-.05.04-.14 0-.3a1.5 1.5 0 0 0-.4-.6 1.5 1.5 0 0 0-.61-.4Zm-8.84-6.17c-.04-.03-.15-.04-.32.06-.18.1-.36.3-.5.54-.14.24-.21.5-.22.7 0 .2.07.28.1.3l8.44 4.84.66-.6c.22-.21.53-.23.81-.15.3.09.6.27.84.52a2 2 0 0 1 .51.83c.07.25.07.53-.07.74l-.07.08h-.01l-.07.07 6.57 3.76a20.95 20.95 0 0 1 .91-1.61L45.3 14.5Zm4.7-9c-1.42-.61-3.24-.3-5.13.81a16.94 16.94 0 0 0-5.73 6.12 16.93 16.93 0 0 0-2.44 8.03c-.02 2.4.75 4.24 2.22 5.1 1.4.8 3.3.6 5.27-.5a16.14 16.14 0 0 0 5.44-5.36l-1.03-.6c-1.2 1.8-2.65 3.2-4.08 4-1.49.84-3 1.08-4.19.4-1.25-.73-1.8-2.29-1.75-4.12.05-1.85.7-4.05 1.92-6.17a13.48 13.48 0 0 1 4.38-4.75c1.57-.96 3.2-1.27 4.44-.54 1.12.64 1.68 1.95 1.75 3.52.07 1.52-.3 3.33-1.1 5.16l1.04.6a15.4 15.4 0 0 0 1.58-7.01c-.1-2.01-.78-3.58-2.02-4.4v.03L50 5.5Zm-6.55-3.86c-1.4-.73-3.31-.52-5.37.69a16.79 16.79 0 0 0-5.58 5.84 17.5 17.5 0 0 0-2.56 7.77c-.13 2.45.54 4.33 1.79 5.31l5.45 3.27a7.56 7.56 0 0 1-.98-4.07c.03-2.48.87-5.43 2.5-8.27a17.43 17.43 0 0 1 5.92-6.3 7.54 7.54 0 0 1 4.02-1.19l-5.2-3.05Zm5.62 6.71c-1.02-.59-2.43-.38-3.93.54-1.5.91-3.02 2.5-4.21 4.57a12.98 12.98 0 0 0-1.85 5.93c-.05 1.76.48 3.08 1.5 3.67.96.56 2.28.4 3.7-.39a12.1 12.1 0 0 0 3.88-3.81l-4.04-2.32c-.26-.15-.36-.45-.36-.75a2 2 0 0 1 .29-.94 2 2 0 0 1 .67-.72c.26-.15.57-.22.83-.07l3.98 2.29c.76-1.76 1.1-3.47 1.04-4.89-.07-1.48-.59-2.59-1.5-3.11Z" clip-rule="evenodd"/>
</svg>
