<svg xmlns="http://www.w3.org/2000/svg" width="40" height="40" viewBox="0 0 40 40" fill="none">
  <path fill="#fff" fill-rule="evenodd" d="M20 2a6.38 6.38 0 0 1 4.1 11.2l2.48 8.48.03.11c.03.12.04.24.04.36v.35c.39.17.76.35 1.1.54 1.99 1.1 3.25 2.65 3.25 4.38 0 .11 0 .22-.02.33H31v3.63c0 1.86-1.26 3.51-3.25 4.7A15.37 15.37 0 0 1 20 38c-3.02 0-5.76-.73-7.75-1.92-1.93-1.15-3.17-2.74-3.25-4.53v-4.13c0-1.73 1.27-3.28 3.25-4.38.35-.2.71-.37 1.1-.54v-.35c0-.16.02-.32.07-.47l2.47-8.5A6.38 6.38 0 0 1 20 2Z" clip-rule="evenodd"/>
  <path fill="#2483D6" fill-rule="evenodd" d="M20 2a6.38 6.38 0 0 1 4.1 11.2l2.48 8.48c.05.15.07.3.07.47v.35C29.26 23.61 31 25.4 31 27.42c0 .16-.01.3-.03.46H31v3.5c0 1.86-1.26 3.51-3.25 4.7A15.37 15.37 0 0 1 20 38c-3.02 0-5.76-.73-7.75-1.92-1.93-1.15-3.17-2.74-3.25-4.53v-3.77h.02a3.56 3.56 0 0 1-.02-.36c0-2.03 1.74-3.8 4.35-4.92v-.35c0-.16.02-.32.07-.47l2.47-8.5A6.38 6.38 0 0 1 20 2Zm10.75 26.74c-.46 1.2-1.53 2.25-3 3.07A16.27 16.27 0 0 1 20 33.59c-3.02 0-5.76-.68-7.75-1.78-1.47-.82-2.54-1.87-3-3.07V31.54c.08 1.67 1.24 3.2 3.12 4.32A15.12 15.12 0 0 0 20 37.75c2.98 0 5.68-.73 7.63-1.89 1.94-1.16 3.12-2.75 3.12-4.48v-2.64Zm-4.1-3.56c0 1.14-.77 2.15-1.97 2.87A9.27 9.27 0 0 1 20 29.2a9.27 9.27 0 0 1-4.68-1.16c-1.2-.72-1.97-1.73-1.97-2.87v-2.4c-2.53 1.1-4.1 2.79-4.1 4.64 0 1.6 1.17 3.08 3.12 4.17A16.03 16.03 0 0 0 20 33.34c2.99 0 5.68-.67 7.63-1.75 1.95-1.09 3.12-2.57 3.12-4.17 0-1.85-1.57-3.54-4.1-4.64v2.4Zm-.25-1.06a4.2 4.2 0 0 1-1.72 1.74A9.37 9.37 0 0 1 20 27a9.36 9.36 0 0 1-4.68-1.14 4.2 4.2 0 0 1-1.72-1.74v1.06c0 1.02.69 1.96 1.85 2.65A9.03 9.03 0 0 0 20 28.95c1.78 0 3.4-.43 4.55-1.12 1.16-.7 1.85-1.63 1.85-2.65v-1.06Zm-12.74-2.37c-.04.13-.06.26-.06.4v.88c0 1 .69 1.92 1.85 2.6A9.12 9.12 0 0 0 20 26.76c1.78 0 3.4-.43 4.55-1.11 1.16-.69 1.85-1.62 1.85-2.61v-.88c0-.14-.02-.27-.06-.4l-2.45-8.38a6.23 6.23 0 0 1-7.8 0l-2.43 8.38ZM20 2.25a6.08 6.08 0 0 0-6.05 6.12c0 3.37 2.7 6.11 6.05 6.11a6.08 6.08 0 0 0 6.05-6.11c0-3.38-2.7-6.12-6.05-6.12Z" clip-rule="evenodd"/>
</svg>
