<svg xmlns="http://www.w3.org/2000/svg" width="40" height="40" viewBox="0 0 40 40" fill="none">
  <path fill="#fff" d="M11.27 10.84a4.84 4.84 0 0 1 3.1 8.47l1.85 6.32c.04.15.06.3.06.46v.2c.29.12.56.25.81.4 1.5.83 2.45 2 2.45 3.32v2.98c0 1.4-.95 2.66-2.44 3.56A11.5 11.5 0 0 1 11.27 38a11.5 11.5 0 0 1-5.82-1.45C4 35.68 3.06 34.48 3 33.12V30c0-1.32.96-2.5 2.45-3.33.25-.14.52-.27.8-.4v-.19c0-.16.03-.31.07-.46l1.84-6.32a4.84 4.84 0 0 1 3.11-8.47Z"/>
  <path fill="#fff" d="M29.73 2a4.84 4.84 0 0 1 3.1 8.47l1.85 6.32c.04.15.06.3.06.46v.2c.29.12.56.25.81.39 1.5.83 2.45 2 2.45 3.33V24.14c0 1.41-.95 2.67-2.45 3.57a11.5 11.5 0 0 1-5.82 1.45 11.5 11.5 0 0 1-5.83-1.45c-1.44-.87-2.38-2.08-2.44-3.44v-3.1c0-1.33.96-2.5 2.45-3.33.25-.14.52-.27.8-.4v-.2c0-.15.03-.3.07-.45l1.83-6.33A4.84 4.84 0 0 1 29.73 2Z"/>
  <path fill="#2483D6" fill-rule="evenodd" d="M11.27 10.84a4.84 4.84 0 0 1 3.1 8.47l1.85 6.32.03.11c.02.12.03.23.03.35v.2c1.91.82 3.2 2.11 3.26 3.62v3.08c0 1.4-.95 2.66-2.44 3.56A11.5 11.5 0 0 1 11.27 38a11.5 11.5 0 0 1-5.82-1.45C3.95 35.65 3 34.4 3 33V30c0-1.55 1.3-2.88 3.26-3.72v-.2c0-.16.02-.31.06-.46l1.84-6.32a4.84 4.84 0 0 1 3.11-8.47Zm8.03 20.31a4.95 4.95 0 0 1-2.2 2.19c-1.5.83-3.56 1.35-5.83 1.35s-4.32-.52-5.82-1.35a4.95 4.95 0 0 1-2.2-2.19V33c0 1.28.87 2.47 2.32 3.35 1.45.87 3.47 1.41 5.7 1.41s4.25-.54 5.7-1.41c1.46-.88 2.33-2.07 2.33-3.35v-1.84Zm-3.02-2.83c0 .88-.59 1.64-1.49 2.19-.9.54-2.15.87-3.52.87a6.95 6.95 0 0 1-3.52-.87c-.9-.55-1.5-1.31-1.5-2.19v-1.76c-1.86.83-3 2.08-3 3.45 0 1.19.86 2.3 2.32 3.1 1.45.82 3.47 1.32 5.7 1.32s4.25-.5 5.7-1.31c1.46-.82 2.33-1.92 2.33-3.11 0-1.37-1.15-2.62-3.02-3.45v1.76Zm-.24-.68c-.26.47-.7.89-1.25 1.22-.9.53-2.15.86-3.52.86a7.02 7.02 0 0 1-3.52-.86c-.55-.33-.99-.75-1.24-1.22v.68c0 .75.5 1.45 1.37 1.97.86.52 2.06.84 3.4.84a6.7 6.7 0 0 0 3.39-.84c.86-.52 1.37-1.22 1.37-1.97v-.68ZM6.56 25.7a1.4 1.4 0 0 0-.05.39v.61c0 .74.5 1.43 1.37 1.94.86.51 2.06.83 3.4.83 1.32 0 2.52-.32 3.39-.83.86-.51 1.37-1.2 1.37-1.94v-.6l-.03-.3-.03-.1-1.81-6.21a4.68 4.68 0 0 1-5.8-.01l-1.8 6.22Zm4.71-14.6a4.54 4.54 0 0 0-4.5 4.57 4.54 4.54 0 0 0 4.5 4.57c2.49 0 4.5-2.05 4.5-4.57a4.54 4.54 0 0 0-4.5-4.58Z" clip-rule="evenodd"/>
  <path fill="#2483D6" fill-rule="evenodd" d="M29.73 2a4.84 4.84 0 0 1 3.1 8.47l1.85 6.32.02.11c.03.11.04.23.04.35v.2c1.9.81 3.2 2.11 3.26 3.61v3.08c0 1.41-.95 2.67-2.45 3.57a11.5 11.5 0 0 1-5.82 1.45 11.5 11.5 0 0 1-5.83-1.45c-1.49-.9-2.44-2.16-2.44-3.57v-2.98c0-1.54 1.3-2.88 3.26-3.72v-.2c0-.15.02-.3.06-.45l1.83-6.33A4.84 4.84 0 0 1 29.73 2Zm8.02 20.3a4.95 4.95 0 0 1-2.2 2.2c-1.5.83-3.55 1.34-5.82 1.34-2.27 0-4.33-.51-5.82-1.35a4.95 4.95 0 0 1-2.2-2.18v1.83c0 1.29.86 2.48 2.32 3.35 1.45.87 3.47 1.42 5.7 1.42s4.25-.55 5.7-1.42c1.45-.87 2.32-2.06 2.32-3.35v-1.83Zm-3-2.82c0 .87-.6 1.64-1.5 2.18-.9.55-2.15.88-3.52.88a6.95 6.95 0 0 1-3.52-.88c-.9-.54-1.5-1.3-1.5-2.18v-1.76c-1.86.82-3 2.08-3 3.45 0 1.19.86 2.29 2.32 3.1 1.45.82 3.47 1.32 5.7 1.32s4.25-.5 5.7-1.32c1.46-.81 2.32-1.91 2.32-3.1 0-1.37-1.14-2.63-3-3.45v1.76Zm-.26-.68c-.25.47-.69.88-1.24 1.21-.9.54-2.15.87-3.52.87A7.02 7.02 0 0 1 26.2 20c-.56-.33-1-.74-1.25-1.21v.68c0 .75.51 1.45 1.37 1.97.87.51 2.07.84 3.4.84s2.53-.33 3.4-.84c.86-.52 1.36-1.22 1.36-1.97v-.68Zm-9.47-1.94a1.4 1.4 0 0 0-.06.39v.6c0 .74.5 1.43 1.37 1.95.87.5 2.07.83 3.4.83s2.53-.32 3.4-.83c.86-.52 1.36-1.2 1.36-1.94v-.61c0-.1 0-.2-.03-.3l-.02-.1-1.81-6.2a4.68 4.68 0 0 1-5.8-.02l-1.81 6.23Zm4.7-14.61a4.54 4.54 0 0 0-4.5 4.57 4.54 4.54 0 0 0 4.5 4.57c2.5 0 4.51-2.04 4.51-4.57a4.54 4.54 0 0 0-4.5-4.57Z" clip-rule="evenodd"/>
</svg>
