<svg xmlns="http://www.w3.org/2000/svg" width="38" height="76" viewBox="0 0 38 76" fill="none">
  <path fill="#fff" d="M21.61.76c2.38 0 4.31.94 4.31 2.1l-.04.34-.04 5.9c0 .29-.1.57-.31.83-.2.27-.51.52-.9.73-.2.1-.42.2-.65.28v1.37c.42.14.85.32 1.27.55.91.48 1.8 1.15 2.62 1.96a13.52 13.52 0 0 1 3.44 5.9 8.8 8.8 0 0 1 .27 3 5.3 5.3 0 0 1-.77 2.37 3.67 3.67 0 0 1-1.62 1.4l-.25.12 7.23 35.35A3.4 3.4 0 0 1 35 66.19l.16 1 .03.13c.19.57-.13 1.18-.75 1.44l-1.04.43-.67-1.97-.15.04c-.29.16-.62.28-.98.33l-1.23.17-9.83-36.78-.26-.02-9.33 24.23-1.3.5-.81 1.42c-.32.56-1.07.82-1.74.61l-1.09-.34.76-2.93-.7-.87a5.3 5.3 0 0 1-1.06-4.74l6.81-25.3c-1.59-3.84-.91-7.57 1.8-8.77a4.4 4.4 0 0 1 1.02-.3l4.66-1.77V11h.03c-.3-.1-.57-.21-.81-.34-.4-.21-.7-.46-.9-.73-.21-.26-.32-.54-.32-.82l-.04-5.9c.17-.01.03-.22.03-.36 0-1.15 1.93-2.09 4.31-2.09Z"/>
  <path fill="#2483D6" d="M20.23 74.97a.25.25 0 0 1 .02.5 36 36 0 0 1-.63.01h-.67a.25.25 0 0 1 .05-.5h.62l.61-.01Z"/>
  <path fill="#2483D6" d="m16.18 74.86.62.05h.05a.25.25 0 0 1-.04.5h-.05l-.62-.05-.62-.06.03-.25.02-.25.61.06Z"/>
  <path fill="#2483D6" d="M23.59 74.7c.13-.01.26.09.28.22a.25.25 0 0 1-.22.28 33.87 33.87 0 0 1-1.17.13.25.25 0 0 1-.04-.5 34.26 34.26 0 0 0 1.15-.12Z"/>
  <path fill="#2483D6" d="M15.52 75.3a.25.25 0 0 1 .05-.5l-.05.5Z"/>
  <path fill="#2483D6" d="m12.18 74.27.6.12.6.11a.25.25 0 0 1-.08.5l-.62-.12-.6-.12-.05-.02a.25.25 0 0 1 .1-.48h.05Z"/>
  <path fill="#2483D6" d="M26.58 74.18c.13-.04.27.05.3.18a.25.25 0 0 1-.2.3l-1.07.23a.25.25 0 1 1-.1-.5c.36-.06.72-.13 1.07-.21Z"/>
  <path fill="#2483D6" d="m8.9 73.35.56.2.58.17a.25.25 0 0 1-.14.48l-.6-.18-.57-.2-.05-.02a.25.25 0 0 1 .16-.46h.05Z"/>
  <path fill="#2483D6" d="M29.54 73.32a.25.25 0 0 1 .12.49l-.52.17-.53.17a.25.25 0 0 1-.15-.48c.35-.1.7-.22 1.03-.34h.05Z"/>
  <path fill="#2483D6" d="M32.26 72.12a.25.25 0 0 1 .24.44l-1 .5-.04.01a.25.25 0 0 1-.17-.47l.5-.23.47-.25Z"/>
  <path fill="#2483D6" d="M5.51 72.09a.25.25 0 0 1 .34-.1l.52.28.54.27.04.02a.25.25 0 0 1-.2.44L6.7 73l-.56-.28-.53-.28a.25.25 0 0 1-.1-.34Z"/>
  <path fill="#2483D6" fill-rule="evenodd" d="M15.32 17.69c1.04-.46 2.3-.26 3.46.36a8.07 8.07 0 0 1 3.08 3.05 6.8 6.8 0 0 1 1 3.97c-.1 1.2-.67 2.19-1.7 2.64-1.05.46-2.3.27-3.47-.36a8.08 8.08 0 0 1-3.08-3.05 6.8 6.8 0 0 1-1-3.97c.1-1.19.67-2.18 1.7-2.64Zm3.22.77c-1.07-.57-2.13-.7-2.97-.34-.84.37-1.34 1.2-1.45 2.28-.1 1.09.2 2.4.95 3.7a7.53 7.53 0 0 0 2.86 2.85c1.07.57 2.13.7 2.97.33.84-.37 1.34-1.2 1.45-2.28.1-1.09-.2-2.4-.95-3.7a7.53 7.53 0 0 0-2.86-2.84Z" clip-rule="evenodd"/>
  <path fill="#2483D6" fill-rule="evenodd" d="M21.61.51c1.22 0 2.34.24 3.16.64.8.39 1.4.97 1.4 1.7 0 .12-.01.23-.04.35l-.04 5.91c0 .34-.13.67-.36.97l-.1.12a3.2 3.2 0 0 1-.89.68l-.33.16-.18.07v1.03c.38.14.76.31 1.15.52l.35.2c.8.47 1.6 1.08 2.33 1.8l.3.33a13.84 13.84 0 0 1 3.09 5.3l.11.4c.24.94.34 1.86.3 2.7l-.02.37c-.08.83-.3 1.58-.65 2.2l-.15.26a3.9 3.9 0 0 1-1.71 1.49l-.1.05 7.1 34.75.02.03.05.06.07.1v.01c.21.3.4.6.55.9v.02l.01.02.09.18.03.07.01.03.03.08.05.12.01.03.04.09c0 .04.02.08.04.11v.02l.02.06.07.22c.13.49.18.98.17 1.47v.02c0 .15-.02.3-.04.46l-.01.1-.02.14-.02.07c0 .06-.02.11-.03.17v.04h-.01c-.13.56-.35 1.1-.66 1.63l-.01.02-.05.07c0 .02-.02.04-.03.05l-.1.15a6.13 6.13 0 0 1-.12.2l-.05.06-.2.28h-.02c-.34.43-.74.85-1.2 1.25v.01l-.38.31-.45.34a.25.25 0 0 1-.29-.4l.34-.26-.41-1.57-.3.13a.3.3 0 0 1-.24 0 .24.24 0 0 1-.14-.15l-.52-1.69-.26.08c-.14.06-.3.1-.45.14l-.27.06-1.24.17a.25.25 0 0 1-.27-.18l-2.61-9.8-.07-.02a32.98 32.98 0 0 0-8.5-1.02h-.8c-.78.03-1.55.08-2.3.15h-.01l-.13.02a26.9 26.9 0 0 0-9.06 2.4l-.1.04-.47.25a.25.25 0 0 1-.24-.44l.35-.19.42-1.39-.67-.2a.25.25 0 0 1-.17-.3l.7-2.86-.6-.73a5.54 5.54 0 0 1-1.1-4.96l6.7-25.42a10.1 10.1 0 0 1-.72-4.56c.18-1.93 1.1-3.52 2.75-4.25.16-.07.33-.13.5-.18l5.05-1.84v-1.37a5.4 5.4 0 0 1-.32-.12l-.33-.16a3.2 3.2 0 0 1-.9-.68l-.09-.12c-.23-.3-.36-.63-.36-.97l-.04-5.9h.08a1.3 1.3 0 0 1-.05-.36c0-.73.6-1.31 1.4-1.7.83-.4 1.95-.64 3.16-.64Zm14.87 63.16c-.02.97-.45 1.9-1.18 2.6l.15.96c.08.58-.06 1.3-.74 1.67l-.15.06-.27.12.38 1.4c2.02-1.74 2.79-3.75 2.26-5.7l-.06-.2a5.4 5.4 0 0 0-.39-.91Zm-1.66 2.99c-.34.24-.72.45-1.14.6h-.01l-.54.15.45 1.45.76-.31.08-.05c.42-.22.57-.7.5-1.22l-.1-.62ZM23.43 30.6a4.92 4.92 0 0 1-2.52.63l9.65 36.25 1.02-.14.22-.04v-.01l.42-.13c.83-.35 1.33-1.1 1.27-1.88l-.03-.2-6.95-35.99-3.08 1.51Zm3.55-1.74L33.95 65l.03.13c.08.61-.1 1.2-.47 1.66h.01c1.64-.59 2.6-2.01 2.45-3.48l-.05-.3L28.76 28l-1.78.87ZM11.2 55.28a.25.25 0 0 1-.15.14l-1.2.46-.79 1.36c-.36.63-1.15.92-1.88.76l-.08-.02-.29.95.03-.02h.02a21.64 21.64 0 0 1 1.83-.75l.18-.06.14-.05.2-.06.32-.1.17-.06.04-.01c.62-.2 1.25-.36 1.9-.5l.02-.01.12-.03a27.97 27.97 0 0 1 .73-.16l.15-.03.07-.01h.02c.63-.12 1.27-.22 1.92-.3l.02-.01.21-.03.2-.02.14-.02.56-.06a35.28 35.28 0 0 1 2.03-.13l.43-.01h.13l.37-.01h.17c.68 0 1.37 0 2.04.04H21.07l.37.03h.1l.12.01.3.02.15.02c.68.05 1.35.13 2.01.22l.16.03.35.05h.05l.2.04.3.05.06.01c.73.13 1.45.29 2.14.46l-7-26.26h-.04L11.2 55.27Zm-4.88 1.94.86.26.11.03c.55.12 1.1-.1 1.34-.52l.47-.82-.78.3c-.1.05-.22.02-.29-.07l-1.16-1.44-.55 2.26Zm2.34-1.41 2.1-.82 9.07-23.87a7.87 7.87 0 0 1-1.42-.41L8.66 55.8Zm-3.4-6.9a5.04 5.04 0 0 0 1.01 4.52l1.88 2.32 9.8-25.24a13.17 13.17 0 0 1-6.15-6.4L5.26 48.9Zm13.57-33.36c-1.62-.87-3.25-1.14-4.62-.73l-.34.13c-.04 0-.08.02-.11.04-1.45.63-2.3 2.06-2.48 3.89-.18 1.82.33 4.04 1.59 6.19 1.25 2.15 3 3.82 4.8 4.77 1.78.96 3.6 1.2 5.04.58l-.01-.01.45-.22c1.2-.71 1.9-2.03 2.06-3.67.18-1.83-.33-4.04-1.58-6.2-1.26-2.15-3-3.81-4.8-4.77Zm5.4-1.86-.01.16c-.03.15-.1.3-.2.44l-.12.13c-.13.13-.28.24-.46.34l-.2.09c-.19.08-.4.15-.63.2l-.23.05a4.57 4.57 0 0 1-1.46 0l-.24-.05a3.46 3.46 0 0 1-.64-.2l-.19-.1c-.17-.09-.33-.2-.46-.33l-.11-.13c-.1-.14-.18-.29-.2-.44l-.02-.16v-.64l-3.08 1.12c1.01.09 2.07.42 3.09.97a13.17 13.17 0 0 1 5.01 4.98 11.1 11.1 0 0 1 1.65 6.47 5.73 5.73 0 0 1-.98 2.81l4.31-2.12h.01l.22-.11c.51-.27.95-.68 1.3-1.2l.14-.24c.3-.57.51-1.26.59-2.04l.02-.34c.04-.8-.06-1.68-.29-2.58l-.1-.4a13.3 13.3 0 0 0-2.97-5.1l-.3-.3c-.7-.69-1.45-1.27-2.21-1.72l-.33-.19c-.3-.16-.61-.3-.9-.41v1.04Zm-.5-2.4c-.14.04-.3.08-.44.1l-.42.09a8.12 8.12 0 0 1-2.6 0l-.4-.08-.31-.08v2.43c.02.08.05.15.11.24l.08.08c.08.08.2.17.34.25l.15.07c.17.07.35.13.55.18l.2.03a4.07 4.07 0 0 0 1.3 0l.21-.03c.2-.05.39-.11.55-.18l.15-.07c.15-.08.26-.17.34-.25l.08-.08c.06-.09.1-.16.1-.24l.01-.06v-2.4ZM17.56 9.1l.02.16c.03.17.1.34.24.5l.15.18c.17.17.4.34.68.49l.29.14c.3.13.65.25 1.03.33l.39.08a7.64 7.64 0 0 0 2.43 0l.39-.08c.38-.08.72-.2 1.03-.33l.3-.14c.27-.15.5-.32.67-.49l.15-.17c.18-.23.26-.46.26-.67l.03-5.13a3.4 3.4 0 0 1-.85.57c-.82.4-1.94.64-3.16.64a7.42 7.42 0 0 1-3.15-.64c-.37-.17-.69-.4-.93-.64l.03 5.2ZM21.61 1c-1.16 0-2.2.23-2.93.59-.76.37-1.13.82-1.13 1.25 0 .43.37.89 1.13 1.25.73.36 1.77.59 2.93.59 1.16 0 2.2-.23 2.94-.59.76-.36 1.12-.82 1.12-1.25 0-.43-.36-.88-1.12-1.25A6.93 6.93 0 0 0 21.61 1Z" clip-rule="evenodd"/>
  <path fill="#2483D6" d="M2.84 70.04c.08-.08.22-.1.31-.03l.04.03.21.2.44.39.24.19.03.03a.25.25 0 0 1-.3.39l-.04-.03-.25-.2-.46-.4-.22-.21-.03-.04a.25.25 0 0 1 .03-.32Z"/>
  <path fill="#2483D6" fill-rule="evenodd" d="M19.17 61c2.6 0 4.97.54 6.7 1.41 1.7.87 2.85 2.12 2.85 3.57 0 1.45-1.15 2.7-2.86 3.57a15.1 15.1 0 0 1-6.69 1.41c-2.6 0-4.96-.53-6.68-1.4-1.71-.88-2.86-2.13-2.86-3.58 0-1.45 1.15-2.7 2.86-3.57A15.1 15.1 0 0 1 19.17 61Zm0 .5c-2.53 0-4.81.52-6.46 1.36-1.65.84-2.58 1.96-2.58 3.12 0 1.17.93 2.28 2.58 3.13a14.6 14.6 0 0 0 6.46 1.35c2.54 0 4.83-.52 6.47-1.35 1.65-.85 2.58-1.96 2.58-3.13 0-1.16-.93-2.28-2.58-3.12a14.6 14.6 0 0 0-6.47-1.36Z" clip-rule="evenodd"/>
  <path fill="#2483D6" d="M1.18 67.29c.11-.04.23.01.3.11l.01.05.08.21a5.3 5.3 0 0 0 .2.47l.14.26.02.05a.25.25 0 0 1-.43.23l-.03-.04-.14-.28-.14-.28a5.85 5.85 0 0 1-.09-.23l-.08-.23-.01-.05a.25.25 0 0 1 .17-.27Z"/>
  <path fill="#2483D6" d="M1.18 64.66c.14.03.22.16.19.3-.07.3-.1.6-.12.89a.25.25 0 0 1-.5-.02c.01-.33.06-.66.13-.99l.02-.04c.05-.11.16-.17.28-.14Z"/>
  <path fill="#2483D6" d="M2.15 62.35a.25.25 0 0 1 .36.34l-.15.19c-.14.19-.26.38-.37.57a.25.25 0 0 1-.35.09.25.25 0 0 1-.09-.35c.17-.27.35-.54.56-.8l.04-.04Z"/>
  <path fill="#2483D6" d="M4.2 60.44a.25.25 0 0 1 .28.4l-.04.03a11.9 11.9 0 0 0-.78.63.25.25 0 0 1-.33-.38 11.4 11.4 0 0 1 .82-.65l.04-.03Z"/>
</svg>
