<svg xmlns="http://www.w3.org/2000/svg" width="73" height="75" fill="none" viewBox="0 0 73 75">
  <path fill="#fff" d="M36.46 1.04a3.6 3.6 0 0 1 3.24 5.2l25.99 13.43a3.6 3.6 0 1 1 3.2 5.28h-.08v25.17h.08a3.6 3.6 0 1 1-3.1 5.47L39.72 68.85a3.6 3.6 0 0 1-3.25 5.17 3.6 3.6 0 0 1-3.19-5.29L7.29 55.34a3.6 3.6 0 1 1-3.26-5.16h.02l-.06-25.24a3.6 3.6 0 1 1 3.22-5.31L33.24 6.28a3.6 3.6 0 0 1 3.22-5.24Z"/>
  <path fill="#2483D6" fill-rule="evenodd" d="M36.46.8A3.86 3.86 0 0 1 40 6.16l25.67 13.02-.07.14a3.85 3.85 0 1 1 3.54 5.86v24.69a3.86 3.86 0 1 1-3.45 6L40 68.9a3.85 3.85 0 0 1-3.54 5.38 3.86 3.86 0 0 1-3.55-5.37l-25.65-13a3.85 3.85 0 1 1-3.48-5.96V25.19a3.86 3.86 0 1 1 3.46-6L32.9 6.16A3.86 3.86 0 0 1 36.46.8Zm0 66.26a3.36 3.36 0 1 0 0 6.72 3.36 3.36 0 0 0 0-6.72ZM7.64 52.43a3.85 3.85 0 0 1-.14 3.04l25.64 12.99a3.86 3.86 0 0 1 3.06-1.9V41.39a3.86 3.86 0 0 1-3.06-1.89L7.64 52.43ZM39.78 39.5a3.85 3.85 0 0 1-3.08 1.88v25.19c1.3.08 2.44.81 3.07 1.88l25.67-13a3.84 3.84 0 0 1-.18-3.02L39.78 39.5ZM4.03 50.43a3.36 3.36 0 1 0 2.78 5.24l-.06-.02.11-.23.12-.22.08.04a3.34 3.34 0 0 0 .14-2.58l-.04.02-.11-.22-.12-.23.06-.03a3.36 3.36 0 0 0-2.96-1.77Zm64.86-.06a3.36 3.36 0 1 0 0 6.72 3.36 3.36 0 0 0 0-6.72ZM7.45 23.12a3.85 3.85 0 0 1-3.17 2.07v24.75c1.37.08 2.55.89 3.16 2.04L32.9 39.05a3.84 3.84 0 0 1 0-3.03L7.45 23.12ZM40 36a3.84 3.84 0 0 1 0 3.04l25.46 12.92c.6-1.18 1.79-2 3.18-2.09v-24.7a3.86 3.86 0 0 1-3.18-2.06L40 36Zm-3.54-1.84a3.36 3.36 0 1 0 0 6.72 3.36 3.36 0 0 0 0-6.72ZM7.49 19.63a3.84 3.84 0 0 1 .17 3.03l25.48 12.91a3.86 3.86 0 0 1 3.06-1.89V8.5a3.86 3.86 0 0 1-3.06-1.9L7.49 19.64ZM39.78 6.6A3.85 3.85 0 0 1 36.7 8.5v25.18c1.31.08 2.44.82 3.08 1.88l25.48-12.9a3.85 3.85 0 0 1 .17-3.03L39.78 6.61ZM4.03 17.98a3.36 3.36 0 1 0 0 6.72 3.36 3.36 0 0 0 0-6.72Zm64.86 0a3.36 3.36 0 1 0 0 6.72 3.36 3.36 0 0 0 0-6.72ZM36.46 1.3a3.36 3.36 0 1 0 0 6.72 3.36 3.36 0 0 0 0-6.72Z" clip-rule="evenodd"/>
</svg>
