<svg xmlns="http://www.w3.org/2000/svg" width="73" height="66" fill="none" viewBox="0 0 73 66">
  <path fill="#fff" d="m54.2 28.52 18.04 9.08v18.33L54.2 65.2l-17.8-9.26-18.04 9.26L.55 55.93V37.6l17.81-9.08.12-18.48L36.29.96l18.03 9.08-.12 18.48Z"/>
  <path fill="#2483D6" fill-rule="evenodd" d="M36.23.72c.06-.02.12 0 .17.02l18.03 9.08c.09.04.14.13.14.22v18.34h-.1l17.87 9c.09.04.14.12.14.22v18.33c0 .1-.05.18-.14.23L54.31 65.4a.25.25 0 0 1-.23 0l-17.7-9.2-17.9 9.2a.25.25 0 0 1-.24 0L.43 56.15a.25.25 0 0 1-.14-.22V37.6c0-.1.06-.18.14-.22l17.8-9.07V10.04c0-.1.05-.18.13-.22L36.17.74l.06-.02ZM18.6 47v17.77l17.52-9V38.01l-17.52 9Zm35.84 0v17.77l17.53-9V38l-17.53 9ZM.79 55.78l17.32 9V47L.79 38v17.77Zm35.85 0 17.3 9V47l-17.3-9v17.77ZM1.1 37.6l17.27 8.97 17.48-8.97-17.48-8.8-17.27 8.8Zm35.84 0 17.27 8.97 17.48-8.97-17.48-8.8-17.27 8.8Zm-.4-18.15v17.79l17.54-8.94V10.45l-17.53 9Zm-17.8 8.93h-.1l17.4 8.76v-17.7l-17.3-8.99v17.93Zm.29-18.34 17.27 8.97 17.48-8.97-17.48-8.8-17.27 8.8Z" clip-rule="evenodd"/>
</svg>
