<svg xmlns="http://www.w3.org/2000/svg" width="65" height="72" fill="none" viewBox="0 0 65 72">
  <path fill="#fff" d="m32.32.46 31.76 17.6V53.6L32.32 71.54.94 53.6V18.06L32.32.46Z"/>
  <path fill="#2483D6" fill-rule="evenodd" d="M53.73 35.71a.25.25 0 0 1 .37.21l.2 12.12c0 .09-.05.17-.13.22l-10.71 6.1a.25.25 0 0 1-.38-.21l.02-12.28c0-.07.03-.13.08-.18l.05-.04 10.5-5.94Zm-10.14 18 9.98-5.68-9.97-5.7-.01 11.38Zm.25-11.83 9.95 5.7-.18-11.23-9.77 5.53Z" clip-rule="evenodd"/>
  <path fill="#2483D6" fill-rule="evenodd" d="M11.75 35.71a.25.25 0 0 1 .25 0l10.5 5.94.05.04c.05.05.07.11.07.18l.02 12.28a.25.25 0 0 1-.37.21l-10.71-6.1a.25.25 0 0 1-.13-.22l.2-12.12c0-.08.04-.17.12-.2Zm.39 12.3 10 5.7-.02-11.41L12.14 48Zm-.2-.46 9.93-5.68-9.75-5.52-.18 11.2Z" clip-rule="evenodd"/>
  <path fill="#2483D6" fill-rule="evenodd" d="M32.68 11.74c.06-.02.13-.01.19.02L43.5 17.9a.25.25 0 0 1 0 .43l-10.64 6.22a.25.25 0 0 1-.26 0l-10.4-6.22a.25.25 0 0 1 .01-.43l10.4-6.13.06-.02Zm.27 12.17 9.93-5.8-9.93-5.72v11.52Zm-10.11-5.8 9.61 5.75V12.44l-9.61 5.66Z" clip-rule="evenodd"/>
  <path fill="#2483D6" fill-rule="evenodd" d="M32.26.22c.06-.01.12 0 .18.03l31.77 17.6c.08.04.12.12.13.21V53.6c0 .09-.05.17-.13.22L32.44 71.75a.25.25 0 0 1-.25 0L.81 53.82a.25.25 0 0 1-.12-.22V18.06a.25.25 0 0 1 .04-.13l.03-.04a.25.25 0 0 1 .06-.04L32.2.25l.06-.03Zm.06 71.03.1-.06h-.2l.1.06Zm.25-35.1V71.1l31.27-17.66V18.5L32.56 36.15ZM1.19 53.45l30.88 17.66V36.15L1.19 18.5v34.95Zm.25-35.38L32.32 35.7l31.25-17.64L32.32.75 1.44 18.07Z" clip-rule="evenodd"/>
</svg>
