<svg width="74" height="77" viewBox="0 0 74 77" fill="none" xmlns="http://www.w3.org/2000/svg">
<path fill-rule="evenodd" clip-rule="evenodd" d="M49.2793 1.08996C50.7175 0.226207 52.5112 0.211639 53.9639 1.0509C55.3908 1.87537 56.2704 3.39804 56.2705 5.04601V14.4073C60.6195 14.7882 64.57 16.0921 67.3145 18.0743C69.9777 19.998 71.3399 22.4467 71.0566 24.9571H71.0938V38.6818C72.7328 40.3756 73.408 42.4091 73.2217 44.3224L73.2227 44.3234L73.1279 48.1866C73.1252 51.2204 71.1286 54.083 67.4492 56.1691C63.7686 58.2558 58.7935 59.421 53.6191 59.421C48.6064 59.421 43.7807 58.3279 40.1377 56.3624L39.7891 56.1691C39.0463 55.7479 38.3683 55.2942 37.7578 54.8155V55.3487C39.1651 56.9223 39.9137 58.6761 39.918 60.4689L39.917 60.5167L39.918 64.9737C39.9177 68.0147 37.789 70.8781 34.1133 72.962C30.4326 75.0487 25.4576 76.214 20.2832 76.214C15.1088 76.214 10.1338 75.0487 6.45312 72.962C2.89214 70.9431 0.782647 68.1927 0.654297 65.2579L0.648438 64.9737V60.4777C0.650173 58.7795 1.31912 57.1099 2.59277 55.5948L2.80859 55.7765V41.2032H2.81055C2.76466 38.65 4.40293 36.2209 7.3125 34.3771L7.88379 34.0323C10.7875 32.36 14.6367 31.3302 18.7461 31.1232V20.7023C18.7461 19.9123 19.1607 19.1803 19.8379 18.7736L49.2793 1.08996ZM52.0479 4.89172C52.0477 4.69621 51.8335 4.57634 51.667 4.67883L23.0869 22.2804C23.0133 22.3258 22.9689 22.4068 22.9688 22.4933V31.2032C27.3043 31.5879 31.2413 32.8903 33.9785 34.8673C34.8409 35.4902 35.5666 36.1686 36.1445 36.8859V24.4103H36.1465C36.1006 21.8571 37.7389 19.4279 40.6484 17.5841L41.2197 17.2394C44.1153 15.5716 47.9513 14.5432 52.0479 14.3321V4.89172Z" fill="white"/>
<path fill-rule="evenodd" clip-rule="evenodd" d="M49.2793 1.08996C50.7175 0.226207 52.5112 0.211639 53.9639 1.0509C55.3908 1.87537 56.2704 3.39804 56.2705 5.04601V14.4073C60.6195 14.7882 64.57 16.0921 67.3145 18.0743C69.9777 19.998 71.3399 22.4467 71.0566 24.9571H71.0938V38.6818C72.7328 40.3756 73.408 42.4091 73.2217 44.3224L73.2227 44.3234L73.1279 48.1866C73.1252 51.2204 71.1286 54.083 67.4492 56.1691C63.7686 58.2558 58.7935 59.421 53.6191 59.421C48.6064 59.421 43.7807 58.3279 40.1377 56.3624L39.7891 56.1691C39.0463 55.7479 38.3683 55.2942 37.7578 54.8155V55.3487C39.1776 56.9363 39.9268 58.7071 39.918 60.5157V64.9737C39.9177 68.0147 37.789 70.8781 34.1133 72.962C30.4326 75.0487 25.4576 76.214 20.2832 76.214C15.1088 76.214 10.1338 75.0487 6.45312 72.962C2.89214 70.9431 0.782647 68.1927 0.654297 65.2579L0.648438 64.9737V60.4845C0.648482 58.6866 1.39764 56.9276 2.80859 55.3497V41.2032H2.81055C2.76466 38.65 4.40293 36.2209 7.3125 34.3771L7.88379 34.0323C10.7875 32.36 14.6367 31.3302 18.7461 31.1232V20.7023C18.7461 19.9123 19.1607 19.1803 19.8379 18.7736L49.2793 1.08996ZM39.418 63.0089C38.9394 64.2047 38.1253 65.3462 37.0068 66.3868C35.241 68.0297 32.7704 69.3774 29.8418 70.3087C26.912 71.2404 23.6127 71.7269 20.2607 71.7247C16.9086 71.7225 13.6107 71.2316 10.6846 70.296C7.94229 69.4192 5.60414 68.1768 3.87305 66.6691L3.53516 66.3644C2.42949 65.3302 1.62358 64.1973 1.14844 63.0109V64.9737L1.1543 65.2345C1.27244 67.9315 3.21682 70.5531 6.69922 72.5275C10.2892 74.5628 15.1754 75.714 20.2832 75.714C25.391 75.714 30.2772 74.5628 33.8672 72.5275C37.4617 70.4895 39.4177 67.7621 39.418 64.9737V63.0089ZM37.7578 59.5587C37.7577 62.2749 35.8566 64.8274 32.5859 66.6818C29.3104 68.5387 24.8846 69.5743 20.2832 69.5743C15.6818 69.5743 11.256 68.5387 7.98047 66.6818C4.81189 64.8853 2.92902 62.4336 2.81445 59.8126L2.80859 59.5587V56.1232C1.62478 57.6114 1.0658 59.22 1.1582 60.8282C1.26217 62.6353 2.18606 64.4176 3.87695 65.9991L4.20215 66.2931C5.86973 67.7452 8.14261 68.9579 10.8369 69.8195C13.7096 70.738 16.9554 71.2225 20.2607 71.2247C23.5661 71.2269 26.8139 70.7469 29.6904 69.8321C32.5681 68.917 34.9675 67.6008 36.666 66.0206C38.3635 64.4413 39.2947 62.6605 39.4062 60.8536C39.5059 59.2372 38.9478 57.6193 37.7578 56.1232V59.5587ZM37.2578 43.4855C36.4045 45.494 34.4948 47.2913 31.8047 48.6398C28.4704 50.3111 24.1489 51.1912 19.7246 51.1105C15.3008 51.0297 11.086 49.9939 7.94434 48.2023C5.67646 46.9089 4.07051 45.2778 3.30859 43.4874V59.5587L3.31348 59.7892C3.41781 62.1724 5.13673 64.4943 8.22656 66.2462C11.4115 68.0519 15.7483 69.0743 20.2832 69.0743C24.8181 69.0743 29.1549 68.0519 32.3398 66.2462C35.5292 64.4379 37.2577 62.0222 37.2578 59.5587V43.4855ZM72.6709 46.4142C72.1553 47.6031 71.3069 48.7344 70.1582 49.7618C68.3582 51.3718 65.8747 52.6858 62.9502 53.587C60.0244 54.4886 56.745 54.9508 53.4219 54.9318C50.3063 54.9139 47.2442 54.4731 44.4893 53.6476L43.9424 53.4777C41.5117 52.6921 39.4037 51.6177 37.7578 50.3273V54.173C38.423 54.7269 39.1832 55.2515 40.0352 55.7345L40.376 55.922C43.9312 57.84 48.671 58.921 53.6191 58.921C58.7269 58.921 63.6131 57.7699 67.2031 55.7345C70.7916 53.7 72.6277 50.9741 72.6279 48.1808V48.1739L72.6709 46.4142ZM71.0938 42.7657C71.0937 45.482 69.1926 48.0344 65.9219 49.8888C62.6463 51.7458 58.2206 52.7814 53.6191 52.7814C49.305 52.7814 45.1455 51.8708 41.9434 50.2267L41.3164 49.8888C39.828 49.0449 38.6273 48.0581 37.7578 46.9786V49.6847C39.387 51.041 41.5514 52.1795 44.0967 53.0021L44.6338 53.1691C47.3389 53.9796 50.353 54.4142 53.4248 54.4318C56.7015 54.4505 59.9297 53.9939 62.8027 53.1085C65.6769 52.2228 68.0917 50.9402 69.8252 49.3898C71.5581 47.8398 72.5434 46.0828 72.7236 44.2921C72.8864 42.6733 72.3789 40.9392 71.0938 39.4259V42.7657ZM70.5938 26.6925C69.7405 28.701 67.8307 30.4983 65.1406 31.8468C61.8063 33.5182 57.4848 34.3982 53.0605 34.3175C48.6368 34.2368 44.422 33.2009 41.2803 31.4093C39.0124 30.1159 37.4064 28.4848 36.6445 26.6945V37.5734L36.5605 37.4474C37.4776 38.7957 37.8886 40.2618 37.7207 41.7501H37.7578V46.1417C38.5886 47.3617 39.8721 48.4948 41.5625 49.4532L42.1729 49.7823C45.2902 51.3826 49.3675 52.2814 53.6191 52.2814C58.154 52.2814 62.4909 51.2589 65.6758 49.4532C68.8651 47.6449 70.5937 45.2293 70.5938 42.7657V26.6925ZM18.7461 31.6241C14.706 31.8311 10.9479 32.8444 8.13379 34.465L7.58008 34.7999C4.69305 36.6295 3.20474 38.9778 3.31445 41.3448C3.42447 43.7159 5.13319 46.0235 8.19141 47.7677C11.2453 49.5094 15.374 50.5309 19.7334 50.6105C24.0924 50.69 28.3307 49.8212 31.5801 48.1925C34.8353 46.5608 36.8105 44.3137 37.1904 41.9445C37.5682 39.5882 36.3517 37.1983 33.6855 35.2726C31.0493 33.3685 27.2229 32.0902 22.9688 31.7062V33.381C26.2294 33.754 29.1582 34.7931 31.1855 36.3243C33.2196 37.8608 34.2256 39.8057 33.9248 41.7892L33.8916 41.9806C33.4967 44.0152 31.7645 45.8402 29.1318 47.1173C26.493 48.3973 23.1058 49.0545 19.6592 48.965C16.2134 48.8754 12.9442 48.0454 10.5176 46.631C8.17062 45.2629 6.74495 43.4212 6.59863 41.4376L6.58789 41.2452C6.52249 39.1858 7.84384 37.2366 10.1787 35.7736C12.4199 34.3693 15.4687 33.4888 18.7461 33.2775V31.6241ZM18.7461 33.7784C15.544 33.9894 12.5927 34.8513 10.4443 36.1974C8.19349 37.6078 7.03026 39.4146 7.08789 41.2296L7.11328 41.5695C7.3101 43.2684 8.57242 44.9181 10.7686 46.1984C13.1074 47.5617 16.291 48.3771 19.6729 48.465C23.054 48.5527 26.3583 47.9063 28.9131 46.6671C31.4739 45.4249 33.0487 43.7031 33.4014 41.8859L33.4521 41.547C33.6379 39.8537 32.7618 38.1412 30.8838 36.7228C28.9577 35.2681 26.1432 34.2551 22.9688 33.8839V39.7462C22.9688 40.9121 22.0233 41.8575 20.8574 41.8575C19.6914 41.8575 18.7461 40.9122 18.7461 39.7462V33.7784ZM53.7139 1.48351C52.4187 0.735261 50.8194 0.74866 49.5371 1.51867L20.0947 19.2023C19.5683 19.5186 19.2461 20.088 19.2461 20.7023V39.7462C19.2461 40.636 19.9676 41.3575 20.8574 41.3575C21.7472 41.3575 22.4688 40.636 22.4688 39.7462V22.4933C22.4689 22.2331 22.6037 21.991 22.8252 21.8546L51.4053 4.25304C51.9049 3.94569 52.5477 4.30508 52.5479 4.89172V23.879C52.5479 24.7687 53.2695 25.4903 54.1592 25.4903C55.0489 25.4903 55.7705 24.7687 55.7705 23.879V5.04601C55.7704 3.57661 54.9862 2.21865 53.7139 1.48351ZM52.0479 4.89172C52.0477 4.69621 51.8335 4.57634 51.667 4.67883L23.0869 22.2804C23.0133 22.3258 22.9689 22.4068 22.9688 22.4933V31.2032C27.3043 31.5879 31.2413 32.8903 33.9785 34.8673C34.8409 35.4902 35.5666 36.1686 36.1445 36.8859V24.4103H36.1465C36.1006 21.8571 37.7389 19.4279 40.6484 17.5841L41.2197 17.2394C44.1153 15.5716 47.9513 14.5432 52.0479 14.3321V4.89172ZM52.0479 14.8331C48.0207 15.044 44.2759 16.056 41.4697 17.672L40.916 18.007C38.029 19.8365 36.5407 22.1848 36.6504 24.5519C36.7604 26.923 38.4691 29.2306 41.5273 30.9747C44.5813 32.7164 48.71 33.7379 53.0693 33.8175C57.4283 33.8971 61.6667 33.0283 64.916 31.3995C68.1712 29.7678 70.1464 27.5207 70.5264 25.1515C70.9041 22.7952 69.6876 20.4053 67.0215 18.4796C64.3781 16.5705 60.5384 15.2895 56.2705 14.9093V16.5831C59.4426 16.9412 62.3099 17.9314 64.3398 19.3976L64.7334 19.6954C66.6344 21.2125 67.5645 23.104 67.2549 25.0362C66.9264 27.0845 65.2418 28.9349 62.6357 30.2413C60.0237 31.5506 56.6413 32.239 53.1807 32.1759C49.7202 32.1127 46.4201 31.3027 43.958 29.8986C41.5004 28.4969 40.0225 26.5818 39.9268 24.5187C39.831 22.4517 41.1336 20.489 43.4629 19.0128C45.7002 17.595 48.7571 16.7034 52.0479 16.4864V14.8331ZM52.0479 16.9884C48.833 17.2049 45.8742 18.0762 43.7305 19.4347C41.4863 20.8569 40.3415 22.6746 40.4258 24.4952C40.5104 26.32 41.8274 28.1074 44.2061 29.464C46.5803 30.818 49.7936 31.6139 53.1895 31.6759C56.5849 31.7379 59.884 31.0608 62.4111 29.7941C64.9441 28.5244 66.4681 26.7821 66.7607 24.9571C67.033 23.2586 66.2304 21.529 64.4229 20.087L64.0479 19.8028C62.1168 18.4081 59.3586 17.4434 56.2705 17.087V23.879C56.2705 25.0449 55.325 25.9903 54.1592 25.9903C52.9933 25.9903 52.0479 25.0449 52.0479 23.879V16.9884Z" fill="#2483D6"/>
</svg>
