<svg xmlns="http://www.w3.org/2000/svg" width="73" height="74" fill="none" viewBox="0 0 73 74">
  <path fill="#fff" d="M36.67 1.04A35.97 35.97 0 1 1 6.52 17.4a3.11 3.11 0 1 1 3.8-4.85 35.87 35.87 0 0 1 26.35-11.5Z"/>
  <path fill="#2483D6" fill-rule="evenodd" d="M36.81.8a36.9 36.9 0 0 1 .79 0 36.23 36.23 0 0 1 34.36 28.03l.05.23a36.22 36.22 0 0 1-35.34 44.17h-.14A36.2 36.2 0 0 1 5.23 55l-.43-.33-.27-.22-.03-.04a.25.25 0 0 1 .2-.4 36.05 36.05 0 0 1-3.43-24.68 36.01 36.01 0 0 1 4.9-11.87 3.36 3.36 0 1 1 4.14-5.3C16.9 5.18 26.28.8 36.67.8h.14Zm13.05 60.66a86.5 86.5 0 0 1-14.08 1c-4.23-.05-8.4-.38-12.3-1 2.4 5.05 5.52 8.63 8.94 10.26 1.36.66 2.74.98 4.12 1h.04c.23 0 .46 0 .7-.02v-7.02a.25.25 0 0 1 .5 0v6.98a9.5 9.5 0 0 0 1.26-.24c2.18-.57 4.34-1.94 6.33-4.1a27.62 27.62 0 0 0 4.49-6.86Zm17.24-5.75c-3.06 2-7.37 3.68-12.53 4.86-1.33.3-2.7.57-4.11.8a28.43 28.43 0 0 1-4.72 7.29 14.69 14.69 0 0 1-5.48 3.89A35.71 35.71 0 0 0 67.1 55.7Zm-60.86 0a35.71 35.71 0 0 0 26.83 16.83 11.5 11.5 0 0 1-.86-.36c-3.64-1.74-6.87-5.54-9.33-10.8a66.35 66.35 0 0 1-5.62-1.18c-4.5-1.15-8.27-2.68-11.02-4.49Zm65.73-24.15a7.44 7.44 0 0 1-1.5 2.9c-1.51 1.89-4.03 3.61-7.36 5.07A51.86 51.86 0 0 1 52 42.79l-.85.16c-3.26.57-6.72.94-10.25 1.1a3.36 3.36 0 0 1-3.11 3.2V58.44a.25.25 0 0 1-.5 0V47.26a3.36 3.36 0 0 1-3.11-3.14l-1.44-.04a81.96 81.96 0 0 1-9.12-.9l-1.47-.24c-1.16-.2-2.3-.43-3.39-.68a59.84 59.84 0 0 0 2.86 14.6 43 43 0 0 0 1.61 4.06c3.97.64 8.23 1 12.57 1.04 4.93.04 9.8-.31 14.32-1.04a50.97 50.97 0 0 0 3.74-12.58.25.25 0 0 1 .5.08c-.8 4.6-2.03 8.8-3.64 12.4 1.28-.22 2.54-.46 3.75-.74 5.65-1.3 10.24-3.17 13.25-5.4a35.56 35.56 0 0 0 4.26-23.12ZM10.93 16.48a3.36 3.36 0 0 1-4.33 1.24 35.52 35.52 0 0 0-4.66 10.92l-.02.06-.16.74a5.77 5.77 0 0 0 1.2 4.35l.27.34.02.04a.25.25 0 0 1-.38.3l-.03-.03-.28-.36a7.2 7.2 0 0 1-1.2-2.5 35.55 35.55 0 0 0 4.26 23.1c2.74 2.02 6.77 3.77 11.76 5.04 1.68.43 3.43.8 5.25 1.1a43.82 43.82 0 0 1-1.49-3.8 60.43 60.43 0 0 1-2.9-14.88 48.74 48.74 0 0 1-7.42-2.35l-.63-.27-.05-.03a.25.25 0 0 1 .2-.45l.05.02.62.27c2.13.88 4.55 1.65 7.2 2.29-.23-3.39-.2-6.84.07-10.26a61.98 61.98 0 0 1 2.16-12.1 51.84 51.84 0 0 1-9.13-2.62l-.38-.16Zm26.7 24.56a.25.25 0 0 1-.1.03.25.25 0 0 1-.11-.03 2.86 2.86 0 1 0 .21 0Zm-16.7-21.68a61.44 61.44 0 0 0-2.15 12.04c-.28 3.45-.3 6.93-.07 10.34 1.14.26 2.31.5 3.52.7l1.46.25c2.92.45 5.93.75 9.06.89l1.42.04a3.36 3.36 0 0 1 3.1-3.07V20.8h-.86a84.49 84.49 0 0 1-14.74-1.3l-.74-.14Zm44.06-4.1a48.12 48.12 0 0 1-9.2 3.33 3.37 3.37 0 0 1-2.07 3.98 65.62 65.62 0 0 1 1.56 13.24v.99a.25.25 0 0 1-.49 0v-.05l-.01-.93a65.12 65.12 0 0 0-1.55-13.1 3.37 3.37 0 0 1-4.02-2.82c-3.66.54-7.52.84-11.43.89v19.76a3.36 3.36 0 0 1 3.1 3L42 43.5c3.12-.2 6.17-.54 9.05-1.04l.85-.16a51.36 51.36 0 0 0 11.01-3.23c3.29-1.44 5.73-3.12 7.18-4.93 1.3-1.61 1.77-3.29 1.44-4.94l-.06-.24a5.58 5.58 0 0 0-.09-.39 35.57 35.57 0 0 0-6.39-13.32Zm-12.45 1.3a2.86 2.86 0 1 0 0 5.73 2.86 2.86 0 0 0 0-5.73ZM36.75 1.29c-4.03-.03-8.01 2.61-11.26 7.65a39.15 39.15 0 0 0-4.42 9.94l.69.13a84 84 0 0 0 14.66 1.29h.86V1.3a9.14 9.14 0 0 0-.52-.02Zm1.03 19c3.9-.05 7.75-.35 11.4-.89 0-1.45.93-2.69 2.23-3.15l-.3-.82c-.26-.67-.53-1.3-.8-1.92l-.45-.95C46.73 6 42.5 2.05 38.01 1.4l-.23-.03V20.3Zm-4.7-18.82a35.62 35.62 0 0 0-22.43 11.07 3.35 3.35 0 0 1 .51 3.5l.33.13a51.41 51.41 0 0 0 9.09 2.61 39.68 39.68 0 0 1 4.49-10.11c2.33-3.62 5.08-6.08 8-7.2Zm7.2 0c3.86 1.48 7.37 5.29 10.04 10.88l.44.95c.35.8.68 1.6 1 2.46l.13.36a3.38 3.38 0 0 1 3.75 2 47.84 47.84 0 0 0 9.04-3.27 35.67 35.67 0 0 0-24.4-13.38ZM8.07 11.83a2.86 2.86 0 1 0 0 5.73 2.86 2.86 0 0 0 0-5.73Z" clip-rule="evenodd"/>
</svg>
