<svg xmlns="http://www.w3.org/2000/svg" width="41" height="41" viewBox="0 0 41 41" fill="none">
  <path fill="#fff" fill-rule="evenodd" d="M21.4.65c2.02-.6 4.97.18 7.92 2.15a23.7 23.7 0 0 1 7.98 9.55c2.05 4.35 2.99 8.74 2.75 12.4-.25 3.66-1.67 6.6-4.36 8l-2.26 1.2 1.85 4.31c.02.07 0 .15-.06.18l-3.1 1.98a.14.14 0 0 1-.17.01l-3.87-2.25a.15.15 0 0 1-.07-.09l-.5-1.77c-1.96.06-4.07-.64-6.12-1.95a20.14 20.14 0 0 1-3.88-3.3l-2.68 1.71a.15.15 0 0 1-.06.03c-.04.01-.07 0-.1-.01l-3.7-2.2a.15.15 0 0 1-.07-.09c-.01-.04 0-.08.02-.11l-4.18 4.1-3.38 4.05a.14.14 0 0 1-.19.02l-2.2-1.64a.15.15 0 0 1-.06-.13l.71-5.44-1.53-5.5c-.01-.04 0-.09.02-.13a.14.14 0 0 1 .09-.05h.03l9.48.39.07-.05 3.08-1.91c-2.02-4.26-2.87-8.62-2.6-12.27.27-3.78 1.75-6.82 4.39-8.2l.25-.12h.02L21.39.64h.02Z" clip-rule="evenodd"/>
  <path fill="#2483D6" fill-rule="evenodd" d="M21.4.65c2.02-.6 4.97.18 7.92 2.15a23.7 23.7 0 0 1 7.98 9.55c2.05 4.35 2.99 8.74 2.75 12.4-.25 3.66-1.67 6.6-4.36 8l-2.25 1.21 1.84 4.3c.02.07 0 .15-.06.18l-3.1 1.98a.14.14 0 0 1-.17.01l-3.87-2.25a.15.15 0 0 1-.07-.09l-.5-1.77c-1.7.05-3.51-.47-5.3-1.46a19.32 19.32 0 0 1-4.7-3.8l-2.7 1.73a.14.14 0 0 1-.04.02.14.14 0 0 1-.1-.01l-3.7-2.2a.15.15 0 0 1-.05-.2l1.24-2.06-5.42 6.15-3.38 4.06a.14.14 0 0 1-.19.02l-2.2-1.64a.15.15 0 0 1-.06-.13l.71-5.44-1.53-5.5c-.01-.04 0-.09.02-.13a.14.14 0 0 1 .09-.05h.03l9.48.39 3.15-1.96c-2.05-4.32-2.9-8.73-2.6-12.42.3-3.7 1.78-6.69 4.39-8.04l.27-.14L21.39.65h.02Zm9.09 34.9 1.6 4.53 2.87-1.82-1.77-4.16-2.7 1.45Zm-.33.16a6.7 6.7 0 0 1-2.36.6l.47 1.64 3.48 2.03-1.59-4.27ZM1.9 31.31v.06l-.69 5.38 2.02 1.5.22-.26a.15.15 0 0 1-.03-.12l.66-5.38-1.22-4.63c-.01-.04 0-.09.03-.12a.14.14 0 0 1 .1-.06h8.88l-2.06-1.32-9.4-.38 1.5 5.33Zm1.29-3.34 1.18 4.47v.06l-.61 4.95 2.77-3.15 5.27-6.33H3.2ZM23.54 5.11c-3.08-1.98-6.24-2.51-8.76-1.2-2.49 1.29-3.93 4.16-4.23 7.8-.3 3.62.53 7.98 2.55 12.24l2.83-1.75a14 14 0 0 1-1.2-6.8c.21-2.05 1.06-3.7 2.54-4.47 1.55-.8 3.46-.46 5.28.7a14.27 14.27 0 0 1 4.83 5.7 14.67 14.67 0 0 1 1.63 7.37c-.16 2.2-1.02 3.98-2.57 4.78-1.36.7-3 .53-4.6-.3-1.6-.84-3.2-2.34-4.5-4.32l-2.83 1.72c2.21 3.66 5.01 6.45 7.84 8.02 2.82 1.57 5.65 1.91 7.95.72 2.52-1.31 3.97-4.24 4.24-7.95.28-3.72-.63-8.2-2.78-12.55-2.15-4.35-5.14-7.74-8.22-9.71Zm5.62-2.06C26.25 1.09 23.39.37 21.5.93l-4.6 2.02c2.15-.26 4.5.44 6.8 1.9 3.13 2.01 6.15 5.45 8.32 9.84 2.17 4.4 3.09 8.92 2.81 12.7-.21 2.9-1.13 5.36-2.74 6.97l3.47-1.87c2.57-1.33 3.96-4.16 4.2-7.76.24-3.6-.68-7.94-2.72-12.25a23.42 23.42 0 0 0-7.88-9.43ZM13 27.5l-1.76 2.92 3.44 2.05 1.58-2.86c-.7-.88-1.37-1.85-2-2.88L13 27.5Zm2.14 4.74 2.17-1.39a24.9 24.9 0 0 1-.85-1l-1.32 2.39Zm7.26-20.36c-1.77-1.13-3.57-1.43-5-.7-1.36.71-2.18 2.26-2.39 4.25a13.7 13.7 0 0 0 1.16 6.62l4.9-3.04.13-.08a1.5 1.5 0 0 1 1.94.6c.44.74.2 1.7-.52 2.14L17.6 24.7a12.3 12.3 0 0 0 4.37 4.2c1.55.81 3.09.96 4.34.31 1.43-.74 2.26-2.4 2.42-4.54.15-2.13-.36-4.7-1.6-7.21a13.98 13.98 0 0 0-4.73-5.6Zm.5 7.8a1.21 1.21 0 0 0-1.57-.48l-.11.06-11.15 6.92 2.2 1.41h.01l10.2-6.18c.58-.35.77-1.13.42-1.73Z" clip-rule="evenodd"/>
</svg>
