<svg xmlns="http://www.w3.org/2000/svg" width="48" height="48" viewBox="0 0 48 48">
  <path fill="#c7cde0" d="M6.5 48H6v-1.5h.5V48ZM18.5 48H18v-1.5h.5V48ZM30.5 48H30v-1.5h.5V48ZM42.48 48h-.5v-1.5h.5V48ZM6.5 45.5H6v-3h.5v3ZM18.5 45.5H18v-3h.5v3ZM30.5 45.5H30v-3h.5v3ZM42.48 45.5h-.5v-3h.5v3ZM1.5 41.99H0v-.5h1.5v.5ZM5.5 41.99h-3v-.5h3v.5ZM6.5 41.49h3v.5h-3v-.49H6v-3h.5v2.99ZM13.5 41.99h-3v-.5h3v.5ZM17.5 41.99h-3v-.5h3v.5ZM21.5 41.99h-3v-.5h3v.5ZM25.5 41.99h-3v-.5h3v.5ZM29.5 41.99h-3v-.5h3v.5ZM30.5 41.49h3v.5h-3v-.49H30v-3h.5v2.99ZM37.5 41.99h-3v-.5h3v.5ZM41.5 41.99h-3v-.5h3v.5ZM45.5 41.99h-3v-.5h3v.5ZM48 41.99h-1.5v-.5H48v.5ZM18.5 41.5H18v-3h.5v3ZM42.48 41.5h-.5v-3h.5v3ZM6.5 37.5H6v-3h.5v3ZM18.5 37.5H18v-3h.5v3ZM30.5 37.5H30v-3h.5v3ZM42.48 37.5h-.5v-3h.5v3ZM6.5 33.5H6v-3h.5v3ZM18.5 33.5H18v-3h.5v3ZM30.5 33.5H30v-3h.5v3ZM42.48 33.5h-.5v-3h.5v3ZM1.5 30.01H0v-.5h1.5v.5ZM5.5 30.01h-3v-.5h3v.5ZM9.5 30.01h-3v-.5h3v.5ZM13.5 30.01h-3v-.5h3v.5ZM17.5 30.01h-3v-.5h3v.5ZM21.5 30.01h-3v-.5h3v.5ZM25.5 30.01h-3v-.5h3v.5ZM29.5 30.01h-3v-.5h3v.5ZM33.5 30.01h-3v-.5h3v.5ZM37.5 30.01h-3v-.5h3v.5ZM41.5 30.01h-3v-.5h3v.5ZM45.5 30.01h-3v-.5h3v.5ZM48 30.01h-1.5v-.5H48v.5ZM6.5 29.5H6v-3h.5v3ZM18.5 29.5H18v-3h.5v3ZM30.5 29.5H30v-3h.5v3ZM42.48 29.5h-.5v-3h.5v3ZM6.5 25.5H6v-3h.5v3ZM18.5 25.5H18v-3h.5v3ZM30.5 25.5H30v-3h.5v3ZM42.48 25.5h-.5v-3h.5v3ZM6.5 21.5H6v-3h.5v3ZM18.5 21.5H18v-3h.5v3ZM30.5 21.5H30v-3h.5v3ZM42.48 21.5h-.5v-3h.5v3ZM1.5 18H0v-.5h1.5v.5ZM5.5 18h-3v-.5h3v.5ZM6.5 17.5h3v.5h-3v-.5H6v-3h.5v3ZM13.5 18h-3v-.5h3v.5ZM17.5 18h-3v-.5h3v.5ZM21.5 18h-3v-.5h3v.5ZM25.5 18h-3v-.5h3v.5ZM29.5 18h-3v-.5h3v.5ZM30.5 17.5h3v.5h-3v-.5H30v-3h.5v3ZM37.5 18h-3v-.5h3v.5ZM41.5 18h-3v-.5h3v.5ZM45.5 18h-3v-.5h3v.5ZM48 18h-1.5v-.5H48v.5ZM18.5 17.5H18v-3h.5v3ZM42.48 17.5h-.5v-3h.5v3ZM6.5 13.5H6v-3h.5v3ZM18.5 13.5H18v-3h.5v3ZM30.5 13.5H30v-3h.5v3ZM42.48 13.5h-.5v-3h.5v3ZM6.5 9.5H6v-3h.5v3ZM18.5 9.5H18v-3h.5v3ZM30.5 9.5H30v-3h.5v3ZM42.48 9.5h-.5v-3h.5v3ZM1.5 6.02H0v-.5h1.5v.5ZM5.5 6.02h-3v-.5h3v.5ZM9.5 6.02h-3v-.5h3v.5ZM13.5 6.02h-3v-.5h3v.5ZM17.5 6.02h-3v-.5h3v.5ZM21.5 6.02h-3v-.5h3v.5ZM25.5 6.02h-3v-.5h3v.5ZM29.5 6.02h-3v-.5h3v.5ZM33.5 6.02h-3v-.5h3v.5ZM37.5 6.02h-3v-.5h3v.5ZM41.5 6.02h-3v-.5h3v.5ZM45.5 6.02h-3v-.5h3v.5ZM48 6.02h-1.5v-.5H48v.5ZM6.5 5.5H6v-3h.5v3ZM18.5 5.5H18v-3h.5v3ZM30.5 5.5H30v-3h.5v3ZM42.48 5.5h-.5v-3h.5v3ZM6.5 1.5H6V0h.5v1.5ZM18.5 1.5H18V0h.5v1.5ZM30.5 1.5H30V0h.5v1.5ZM42.48 1.5h-.5V0h.5v1.5Z" />
</svg>
