<svg width="48" height="48" viewBox="0 0 48 48" xmlns="http://www.w3.org/2000/svg">
<path d="M6.50781 48H6.00781V46.5H6.50781V48Z" />
<path d="M18.4941 48H17.9941V46.5H18.4941V48Z" />
<path d="M30.5039 48H30.0039V46.5H30.5039V48Z" />
<path d="M42.4824 48H41.9824V46.5H42.4824V48Z" />
<path d="M6.50781 45.5H6.00781V42.5H6.50781V45.5Z" />
<path d="M18.4941 45.5H17.9941V42.5H18.4941V45.5Z" />
<path d="M30.5039 45.5H30.0039V42.5H30.5039V45.5Z" />
<path d="M42.4824 45.5H41.9824V42.5H42.4824V45.5Z" />
<path d="M1.5 41.9883H0V41.4883H1.5V41.9883Z" />
<path d="M5.5 41.9883H2.5V41.4883H5.5V41.9883Z" />
<path d="M6.50781 41.4883H9.5V41.9883H6.5V41.5H6.00781V38.5H6.50781V41.4883Z" />
<path d="M13.5 41.9883H10.5V41.4883H13.5V41.9883Z" />
<path d="M17.5 41.9883H14.5V41.4883H17.5V41.9883Z" />
<path d="M21.5 41.9883H18.5V41.4883H21.5V41.9883Z" />
<path d="M25.5 41.9883H22.5V41.4883H25.5V41.9883Z" />
<path d="M29.5 41.9883H26.5V41.4883H29.5V41.9883Z" />
<path d="M30.5039 41.4883H33.5V41.9883H30.5V41.5H30.0039V38.5H30.5039V41.4883Z" />
<path d="M37.5 41.9883H34.5V41.4883H37.5V41.9883Z" />
<path d="M41.5 41.9883H38.5V41.4883H41.5V41.9883Z" />
<path d="M45.5 41.9883H42.5V41.4883H45.5V41.9883Z" />
<path d="M48 41.9883H46.5V41.4883H48V41.9883Z" />
<path d="M18.4941 41.5H17.9941V38.5H18.4941V41.5Z" />
<path d="M42.4824 41.5H41.9824V38.5H42.4824V41.5Z" />
<path d="M6.50781 37.5H6.00781V34.5H6.50781V37.5Z" />
<path d="M18.4941 37.5H17.9941V34.5H18.4941V37.5Z" />
<path d="M30.5039 37.5H30.0039V34.5H30.5039V37.5Z" />
<path d="M42.4824 37.5H41.9824V34.5H42.4824V37.5Z" />
<path d="M6.50781 33.5H6.00781V30.5H6.50781V33.5Z" />
<path d="M18.4941 33.5H17.9941V30.5H18.4941V33.5Z" />
<path d="M30.5039 33.5H30.0039V30.5H30.5039V33.5Z" />
<path d="M42.4824 33.5H41.9824V30.5H42.4824V33.5Z" />
<path d="M1.5 30.0098H0V29.5098H1.5V30.0098Z" />
<path d="M5.5 30.0098H2.5V29.5098H5.5V30.0098Z" />
<path d="M9.5 30.0098H6.5V29.5098H9.5V30.0098Z" />
<path d="M13.5 30.0098H10.5V29.5098H13.5V30.0098Z" />
<path d="M17.5 30.0098H14.5V29.5098H17.5V30.0098Z" />
<path d="M21.5 30.0098H18.5V29.5098H21.5V30.0098Z" />
<path d="M25.5 30.0098H22.5V29.5098H25.5V30.0098Z" />
<path d="M29.5 30.0098H26.5V29.5098H29.5V30.0098Z" />
<path d="M33.5 30.0098H30.5V29.5098H33.5V30.0098Z" />
<path d="M37.5 30.0098H34.5V29.5098H37.5V30.0098Z" />
<path d="M41.5 30.0098H38.5V29.5098H41.5V30.0098Z" />
<path d="M45.5 30.0098H42.5V29.5098H45.5V30.0098Z" />
<path d="M48 30.0098H46.5V29.5098H48V30.0098Z" />
<path d="M6.50781 29.5H6.00781V26.5H6.50781V29.5Z" />
<path d="M18.4941 29.5H17.9941V26.5H18.4941V29.5Z" />
<path d="M30.5039 29.5H30.0039V26.5H30.5039V29.5Z" />
<path d="M42.4824 29.5H41.9824V26.5H42.4824V29.5Z" />
<path d="M6.50781 25.5H6.00781V22.5H6.50781V25.5Z" />
<path d="M18.4941 25.5H17.9941V22.5H18.4941V25.5Z" />
<path d="M30.5039 25.5H30.0039V22.5H30.5039V25.5Z" />
<path d="M42.4824 25.5H41.9824V22.5H42.4824V25.5Z" />
<path d="M6.50781 21.5H6.00781V18.5H6.50781V21.5Z" />
<path d="M18.4941 21.5H17.9941V18.5H18.4941V21.5Z" />
<path d="M30.5039 21.5H30.0039V18.5H30.5039V21.5Z" />
<path d="M42.4824 21.5H41.9824V18.5H42.4824V21.5Z" />
<path d="M1.5 18H0V17.5H1.5V18Z" />
<path d="M5.5 18H2.5V17.5H5.5V18Z" />
<path d="M6.50781 17.5H9.5V18H6.5V17.5H6.00781V14.5H6.50781V17.5Z" />
<path d="M13.5 18H10.5V17.5H13.5V18Z" />
<path d="M17.5 18H14.5V17.5H17.5V18Z" />
<path d="M21.5 18H18.5V17.5H21.5V18Z" />
<path d="M25.5 18H22.5V17.5H25.5V18Z" />
<path d="M29.5 18H26.5V17.5H29.5V18Z" />
<path d="M30.5039 17.5H33.5V18H30.5V17.5H30.0039V14.5H30.5039V17.5Z" />
<path d="M37.5 18H34.5V17.5H37.5V18Z" />
<path d="M41.5 18H38.5V17.5H41.5V18Z" />
<path d="M45.5 18H42.5V17.5H45.5V18Z" />
<path d="M48 18H46.5V17.5H48V18Z" />
<path d="M18.4941 17.5H17.9941V14.5H18.4941V17.5Z" />
<path d="M42.4824 17.5H41.9824V14.5H42.4824V17.5Z" />
<path d="M6.50781 13.5H6.00781V10.5H6.50781V13.5Z" />
<path d="M18.4941 13.5H17.9941V10.5H18.4941V13.5Z" />
<path d="M30.5039 13.5H30.0039V10.5H30.5039V13.5Z" />
<path d="M42.4824 13.5H41.9824V10.5H42.4824V13.5Z" />
<path d="M6.50781 9.5H6.00781V6.5H6.50781V9.5Z" />
<path d="M18.4941 9.5H17.9941V6.5H18.4941V9.5Z" />
<path d="M30.5039 9.5H30.0039V6.5H30.5039V9.5Z" />
<path d="M42.4824 9.5H41.9824V6.5H42.4824V9.5Z" />
<path d="M1.5 6.02148H0V5.52148H1.5V6.02148Z" />
<path d="M5.5 6.02148H2.5V5.52148H5.5V6.02148Z" />
<path d="M9.5 6.02148H6.5V5.52148H9.5V6.02148Z" />
<path d="M13.5 6.02148H10.5V5.52148H13.5V6.02148Z" />
<path d="M17.5 6.02148H14.5V5.52148H17.5V6.02148Z" />
<path d="M21.5 6.02148H18.5V5.52148H21.5V6.02148Z" />
<path d="M25.5 6.02148H22.5V5.52148H25.5V6.02148Z" />
<path d="M29.5 6.02148H26.5V5.52148H29.5V6.02148Z" />
<path d="M33.5 6.02148H30.5V5.52148H33.5V6.02148Z" />
<path d="M37.5 6.02148H34.5V5.52148H37.5V6.02148Z" />
<path d="M41.5 6.02148H38.5V5.52148H41.5V6.02148Z" />
<path d="M45.5 6.02148H42.5V5.52148H45.5V6.02148Z" />
<path d="M48 6.02148H46.5V5.52148H48V6.02148Z" />
<path d="M6.50781 5.5H6.00781V2.5H6.50781V5.5Z" />
<path d="M18.4941 5.5H17.9941V2.5H18.4941V5.5Z" />
<path d="M30.5039 5.5H30.0039V2.5H30.5039V5.5Z" />
<path d="M42.4824 5.5H41.9824V2.5H42.4824V5.5Z" />
<path d="M6.50781 1.5H6.00781V0H6.50781V1.5Z" />
<path d="M18.4941 1.5H17.9941V0H18.4941V1.5Z" />
<path d="M30.5039 1.5H30.0039V0H30.5039V1.5Z" />
<path d="M42.4824 1.5H41.9824V0H42.4824V1.5Z" />
</svg>
