<svg xmlns="http://www.w3.org/2000/svg" width="20" height="20" viewBox="0 0 20 20">
  <path d="M3.46 16.54h13.08V3.46H3.46v13.08Zm14.38.02c0 .7-.57 1.28-1.28 1.28H3.44c-.7 0-1.28-.57-1.28-1.28V3.44c0-.7.57-1.28 1.28-1.28h13.12c.7 0 1.28.57 1.28 1.28v13.12Z"/>
  <path d="M8.72 13.75v-5a.65.65 0 0 1 1.3 0v5a.65.65 0 0 1-1.3 0ZM6.22 13.75v-5a.65.65 0 0 1 1.3 0v5a.65.65 0 0 1-1.3 0Z"/>
  <path d="M13.1 13.75v-2.81a1.54 1.54 0 0 0-1.39-1.53l-.15-.01a1.54 1.54 0 0 0-1.53 1.54.65.65 0 0 1-1.3 0 2.84 2.84 0 0 1 2.83-2.84l.28.01a2.84 2.84 0 0 1 2.56 2.83v2.81a.65.65 0 0 1-1.3 0ZM6.88 7.19a.94.94 0 1 0 0-1.88.94.94 0 0 0 0 1.88Z"/>
</svg>
