<svg xmlns="http://www.w3.org/2000/svg" width="133" height="32" viewBox="0 0 133 32">
  <path d="M21.88 31.5c-.28-.34-.45-.51-.57-.74-3.03-4.33-6.07-8.71-9.16-13.04-.5-.57-.5-1.47 0-2.03 2.7-3.88 5.4-7.87 8.04-11.8A8.37 8.37 0 0 1 27.6 0c6.02 0 12.04 0 18.17.17-4.05 1.52-5.63 5.23-7.82 8.32-5.34 7.6-10.57 15.19-16.03 23"/>
  <path d="M43.02 31.5c-3.26-4.62-6.4-9.06-9.5-13.5a1.67 1.67 0 0 1 0-1.47C36.39 12.26 39.2 8 42.24 3.88c2.41-3.32 7.48-4 10.9-1.69 3.55 2.42 4.84 7.32 2.54 10.86-4.05 6.13-8.33 12.15-12.66 18.44ZM10.8 15.75 0 .1h22.44c-4.72 4.5-7.42 10.52-11.64 15.64ZM50.62 22.33l6.35 9.1H44.43l6.24-9.1M77.83 10.18l-2.41 9.28h-2.76l-1.46-6.13-1.52 6.13h-2.76l-2.36-9.28h2.42l1.35 6.75 1.63-6.75h2.48L74 16.93l1.35-6.75H77.83Zm5.85 9.28-1.9-3.49h-.57v3.49h-2.25v-9.28h3.82c.62 0 1.3.11 1.86.4a2.72 2.72 0 0 1 1.57 2.52c0 .62-.16 1.19-.5 1.63-.4.51-.9.9-1.52 1.02l2.14 3.65H83.8l-.12.06Zm-2.47-5.12h1.4c.34 0 .68-.05.96-.28.23-.22.34-.56.34-.84 0-.28-.11-.62-.34-.85a1.21 1.21 0 0 0-.95-.28H81.2v2.3-.05Zm-13.9 15.8h2.99v1.75h-5.23V22.6h2.25v7.53ZM75.76 32c-.84 0-1.68-.22-2.41-.62a4.57 4.57 0 0 1-1.75-1.69 5.05 5.05 0 0 1 0-4.89 4.2 4.2 0 0 1 1.75-1.69 5.13 5.13 0 0 1 4.78 0c.73.4 1.29.96 1.74 1.7a5.05 5.05 0 0 1 0 4.88 4.2 4.2 0 0 1-1.74 1.7c-.73.39-1.58.61-2.42.61h.05Zm0-2.08c.68 0 1.35-.23 1.8-.73a3.1 3.1 0 0 0 .68-1.97c0-.73-.23-1.4-.68-1.97a2.19 2.19 0 0 0-1.8-.73c-.67 0-1.35.23-1.8.73a2.8 2.8 0 0 0-.67 1.97c0 .73.22 1.4.67 1.97.45.5 1.13.79 1.8.73Zm12.15-4.33c-.17-.28-.4-.56-.73-.73a1.94 1.94 0 0 0-1.12-.23c-.68 0-1.3.23-1.75.73a3.25 3.25 0 0 0 0 3.94c.5.5 1.18.79 1.91.73.51 0 1.02-.11 1.41-.4.4-.27.68-.72.84-1.23H85.6v-1.69h4.94v2.08a4.44 4.44 0 0 1-2.36 2.76c-.67.28-1.35.45-2.08.45a4.9 4.9 0 0 1-2.47-.62c-.73-.4-1.3-.95-1.69-1.69a5.36 5.36 0 0 1 0-4.89c.4-.73.96-1.3 1.69-1.69a5.2 5.2 0 0 1 2.47-.61c1.01 0 1.97.22 2.81.78.8.57 1.3 1.35 1.52 2.25h-2.47l-.06.06Zm6.19-2.98v9.28h-2.25V22.6h2.25Zm5 9.39c-.62 0-1.23-.11-1.8-.34a3.7 3.7 0 0 1-1.29-.95 2.63 2.63 0 0 1-.5-1.58h2.41c0 .28.17.56.34.79.22.17.5.28.79.28.28 0 .56-.06.78-.22a.9.9 0 0 0 .29-.62c0-.23-.06-.4-.23-.57a2.02 2.02 0 0 0-.56-.39l-.96-.34c-.5-.16-1.01-.33-1.46-.56-.4-.17-.73-.45-.96-.84-.28-.4-.45-.9-.39-1.4 0-.8.34-1.58.96-2.03.73-.5 1.57-.79 2.47-.73.9 0 1.74.22 2.47.73.62.5 1.02 1.23 1.02 2.02h-2.42c0-.28-.11-.5-.34-.73-.22-.17-.5-.28-.79-.28-.22 0-.45.06-.67.22-.17.17-.28.4-.23.62 0 .28.17.57.45.68.4.22.85.4 1.35.56.51.17 1.02.34 1.47.56.39.17.73.45.95.79.28.4.45.9.4 1.35a2.6 2.6 0 0 1-1.57 2.47 4 4 0 0 1-1.8.4l-.18.11Zm11.48-9.4v1.8h-2.48v7.49h-2.25V24.4h-2.47v-1.8h7.2Zm3.43 0v9.29h-2.25V22.6H114Zm1.23 4.68c0-.85.17-1.7.62-2.48.4-.73.96-1.3 1.69-1.69.73-.39 1.57-.61 2.42-.61 1.01 0 2.02.28 2.81.9.79.56 1.35 1.4 1.58 2.36h-2.48c-.17-.4-.45-.68-.79-.9a1.7 1.7 0 0 0-1.18-.28c-.62 0-1.3.22-1.69.73a3.1 3.1 0 0 0-.67 1.97c0 .73.17 1.4.67 1.96.45.51 1.07.74 1.7.74.39 0 .78-.12 1.17-.29.34-.22.62-.5.79-.9h2.47c-.22.96-.78 1.8-1.57 2.37-.84.56-1.8.9-2.81.84a4.56 4.56 0 0 1-4.1-2.3 5.21 5.21 0 0 1-.63-2.48v.06ZM129.07 32c-.62 0-1.24-.11-1.8-.34a3.7 3.7 0 0 1-1.3-.95 2.63 2.63 0 0 1-.5-1.58h2.42c0 .28.17.56.33.79.23.17.51.28.8.28.27 0 .55-.06.78-.22a.9.9 0 0 0 .28-.62c0-.23-.06-.4-.22-.57a2.02 2.02 0 0 0-.57-.39l-.95-.34c-.5-.16-1.02-.33-1.47-.56-.39-.17-.73-.45-.95-.84-.28-.4-.45-.9-.4-1.4 0-.8.34-1.58.96-2.03.73-.5 1.58-.79 2.48-.73.9 0 1.74.22 2.47.73.62.5 1.01 1.23 1.01 2.02h-2.47c0-.28-.11-.5-.34-.73-.22-.17-.5-.28-.79-.28-.22 0-.45.06-.67.22-.17.17-.28.4-.23.62 0 .28.17.57.45.68.4.22.85.4 1.35.56.51.17 1.02.34 1.47.56.39.17.73.45.95.79.28.4.45.9.4 1.35a2.6 2.6 0 0 1-1.57 2.47 4 4 0 0 1-1.8.4l-.12.11Z"/>
</svg>
