<svg width="10" height="11" viewBox="0 0 10 11" xmlns="http://www.w3.org/2000/svg">
<path d="M5 0.78125C2.9325 0.78125 1.25 2.47542 1.25 4.55833C1.25 7.51792 4.6475 10.5737 4.79208 10.7021C4.85167 10.755 4.92583 10.7812 5 10.7812C5.07417 10.7812 5.14833 10.755 5.20792 10.7025C5.3525 10.5738 8.75 7.51792 8.75 4.55833C8.75 2.47542 7.0675 0.78125 5 0.78125ZM5 6.61458C3.85125 6.61458 2.91667 5.68 2.91667 4.53125C2.91667 3.3825 3.85125 2.44792 5 2.44792C6.14875 2.44792 7.08333 3.3825 7.08333 4.53125C7.08333 5.68 6.14875 6.61458 5 6.61458Z" fill="#fff" />
</svg>
