<svg xmlns="http://www.w3.org/2000/svg" width="70" height="72" fill="none" viewBox="0 0 70 72">
  <path fill="#fff" d="M50.18 1.95c-2.62-1.47-5.17-1.79-7.14-.8l-.01.01-25.75 15.02h-.01c-1.44.84-2.37 2.3-2.82 4.13L4.1 26.35l-.01.01C1.93 27.6.92 30.24.95 33.42c.03 3.18 1.1 6.96 3.2 10.6 2.1 3.64 4.84 6.46 7.58 8.08 2.74 1.61 5.53 2.05 7.68.81.1-.05.2-.12.29-.18l2.34-1.4c.13 3.08 1.2 6.67 3.19 10.12 2.1 3.63 4.84 6.46 7.58 8.07 2.74 1.62 5.53 2.06 7.68.82l.29-.18 26.55-15.83.04-.02.02-.03c1.47-1.74 2.03-4.5 1.63-7.73a24.35 24.35 0 0 0-3.75-9.86c-2.01-3.13-4.57-5.68-7.2-7.15-.64-.36-1.27-.64-1.9-.86l3.3-1.97.03-.03c1.47-1.74 2.02-4.5 1.62-7.72a24.35 24.35 0 0 0-3.74-9.87c-2.01-3.13-4.57-5.67-7.2-7.14Z"/>
  <path fill="#2483D6" fill-rule="evenodd" d="M26.86 47.22c1.57-.9 3.63-.53 5.64.7A17.27 17.27 0 0 1 38.11 54a17.27 17.27 0 0 1 2.46 7.9c.06 2.36-.64 4.33-2.22 5.24-1.57.91-3.63.53-5.64-.7a17.27 17.27 0 0 1-5.61-6.08 17.27 17.27 0 0 1-2.46-7.9c-.06-2.35.64-4.33 2.22-5.24Zm5.38 1.13c-1.94-1.2-3.79-1.47-5.13-.7-1.35.78-2.03 2.52-1.97 4.8.06 2.26.85 5 2.39 7.66a16.78 16.78 0 0 0 5.44 5.9c1.94 1.2 3.79 1.47 5.13.7 1.35-.78 2.03-2.52 1.97-4.8-.05-2.26-.85-5-2.39-7.66a16.77 16.77 0 0 0-5.44-5.9Z" clip-rule="evenodd"/>
  <path fill="#2483D6" d="M47.23 44.8a.25.25 0 0 1 .25.42l-.04.03-5.87 3.5-.05.02a.25.25 0 0 1-.25-.42l.05-.03 5.86-3.5.05-.02Z"/>
  <path fill="#2483D6" d="M61.13 36.56a.25.25 0 0 1 .25.42l-.04.03-11.73 7-.05.03a.25.25 0 0 1-.25-.43l.04-.03 11.74-7 .04-.02Z"/>
  <path fill="#2483D6" fill-rule="evenodd" d="M5.78 29.8c1.58-.91 3.63-.54 5.64.7a17.27 17.27 0 0 1 5.62 6.08 17.27 17.27 0 0 1 2.46 7.9c.06 2.35-.65 4.32-2.22 5.23-1.58.91-3.64.54-5.65-.7a17.27 17.27 0 0 1-5.61-6.07 17.27 17.27 0 0 1-2.46-7.9c-.06-2.36.64-4.33 2.22-5.24Zm5.38 1.12c-1.94-1.19-3.79-1.47-5.13-.69-1.35.78-2.03 2.51-1.97 4.79.06 2.27.86 5 2.4 7.67a16.77 16.77 0 0 0 5.43 5.9c1.95 1.2 3.8 1.47 5.14.7 1.34-.79 2.02-2.52 1.97-4.8-.06-2.27-.86-5-2.4-7.66a16.78 16.78 0 0 0-5.44-5.91Z" clip-rule="evenodd"/>
  <path fill="#2483D6" fill-rule="evenodd" d="M18.96 19.63c1.58-.92 3.64-.54 5.65.7a17.27 17.27 0 0 1 5.61 6.07 17.27 17.27 0 0 1 2.46 7.9c.06 2.36-.64 4.33-2.22 5.24-1.57.91-3.63.54-5.64-.7a17.27 17.27 0 0 1-5.61-6.08 17.27 17.27 0 0 1-2.46-7.9c-.07-2.35.64-4.32 2.21-5.23Zm5.39 1.12c-1.94-1.2-3.8-1.47-5.14-.7-1.34.78-2.02 2.52-1.96 4.8.05 2.27.85 5 2.39 7.66a16.77 16.77 0 0 0 5.44 5.9c1.94 1.2 3.79 1.48 5.13.7 1.35-.78 2.03-2.51 1.97-4.8-.06-2.26-.85-5-2.39-7.66a16.77 16.77 0 0 0-5.44-5.9Z" clip-rule="evenodd"/>
  <path fill="#2483D6" d="M39.34 17.2a.25.25 0 0 1 .25.42l-.04.03-5.87 3.5-.05.02a.25.25 0 0 1-.25-.42l.04-.03 5.87-3.5.05-.02Z"/>
  <path fill="#2483D6" d="M53.24 8.97a.25.25 0 0 1 .25.42l-.04.03-11.74 7-.04.02a.25.25 0 0 1-.25-.42l.04-.03 11.74-7 .04-.02Z"/>
  <path fill="#2483D6" fill-rule="evenodd" d="M43.04 1.16c1.97-1 4.52-.68 7.14.79 2.63 1.47 5.19 4.01 7.2 7.14a24.35 24.35 0 0 1 3.74 9.87c.4 3.22-.15 5.98-1.62 7.72l-.02.03-3.3 1.97c.51.18 1.04.41 1.58.7l.31.16c2.63 1.47 5.19 4.02 7.2 7.15A24.35 24.35 0 0 1 69 46.55c.4 3.23-.15 5.99-1.62 7.73l-.03.03-.03.02-26.55 15.82-.3.19c-2.14 1.24-4.94.8-7.67-.82-2.74-1.61-5.48-4.44-7.58-8.07-2-3.45-3.06-7.04-3.2-10.12l-2.3 1.38-.32.2c-2.15 1.24-4.94.8-7.68-.81-2.74-1.62-5.48-4.44-7.58-8.08-2.1-3.64-3.17-7.42-3.2-10.6-.03-3.18.98-5.82 3.13-7.06l10.37-6.05c.45-1.83 1.38-3.29 2.82-4.12L43.04 1.15ZM32.58 45.03c-2.66-1.57-5.25-1.92-7.17-.81-1.93 1.11-2.92 3.53-2.89 6.62.03 3.08 1.08 6.78 3.14 10.36 2.07 3.57 4.75 6.33 7.4 7.9 2.64 1.55 5.2 1.9 7.1.84l.36-.22c1.74-1.17 2.63-3.5 2.6-6.43-.03-3.09-1.07-6.79-3.14-10.36-2.06-3.58-4.74-6.33-7.4-7.9Zm.3-2.47a5.13 5.13 0 0 1-2.63.88c.85.26 1.72.65 2.58 1.16 2.75 1.62 5.49 4.44 7.59 8.08 2.1 3.63 3.17 7.42 3.2 10.6.02 2.14-.43 4.04-1.39 5.43l24.8-14.79c1.33-1.59 1.88-4.17 1.49-7.3a23.86 23.86 0 0 0-3.67-9.66c-1.98-3.08-4.48-5.56-7.02-6.98l-.3-.16c-.66-.35-1.3-.61-1.93-.8L32.89 42.56ZM9.93 26.83c-2.1-.86-4.07-.92-5.6-.04-1.92 1.12-2.9 3.53-2.87 6.62.02 3.09 1.07 6.79 3.13 10.36 2.07 3.58 4.75 6.33 7.4 7.9 2.64 1.55 5.2 1.91 7.11.85l.37-.23c1.54-1.06 2.41-3.02 2.56-5.52.16-2.64-.5-5.85-1.98-9.07a26.16 26.16 0 0 1-3.87-6.12 17.4 17.4 0 0 0-6.25-4.75ZM22.1 49.24a7.25 7.25 0 0 1-.95 2.04l.87-.52c0-.52.03-1.03.08-1.52Zm-1.04-10.42c1.1 2.83 1.6 5.6 1.46 7.98l-.06.66a6.07 6.07 0 0 1 2.7-3.67v-.01l1.62-.94a12.7 12.7 0 0 1-1.86-.91 18.63 18.63 0 0 1-3.86-3.11Zm6.26 4.28.18-.01-.1-.04-.08.05ZM24.7 17.43c-2.65-1.56-5.21-1.91-7.13-.83l-.04.02c-1.93 1.11-2.92 3.53-2.89 6.62.03 3.08 1.08 6.78 3.14 10.36 2.06 3.58 4.75 6.33 7.4 7.9 2.64 1.55 5.2 1.9 7.1.84l.35-.2c1.75-1.19 2.64-3.51 2.6-6.45-.02-3.08-1.06-6.78-3.13-10.36-2.06-3.58-4.75-6.33-7.4-7.9ZM49.94 2.38C47.4.96 45.03.71 43.27 1.6L19.43 15.5c1.71-.17 3.63.39 5.51 1.5 2.75 1.62 5.49 4.44 7.58 8.08 2.1 3.64 3.18 7.42 3.21 10.6.02 2.15-.44 4.04-1.4 5.43l24.81-14.79c1.33-1.59 1.88-4.17 1.49-7.3a23.86 23.86 0 0 0-3.67-9.66c-1.98-3.08-4.48-5.56-7.02-6.98ZM6.22 25.68a8.23 8.23 0 0 1 3.89.68c1.84.76 3.74 2.09 5.49 3.87a20.11 20.11 0 0 1-1.47-6.99c0-.8.05-1.55.18-2.27L6.22 25.7Z" clip-rule="evenodd"/>
</svg>
