<svg xmlns="http://www.w3.org/2000/svg" width="76" height="71" fill="none" viewBox="0 0 76 71">
  <path fill="#fff" fill-rule="evenodd" d="M25.76 2.86C29.4.82 32.93.39 35.63 1.76h.02L71.52 22.7l.07.04.08.05.14.08c2.8 1.76 4.14 5.33 4.1 9.63-.04 4.42-1.53 9.68-4.45 14.74-2.93 5.06-6.74 8.99-10.55 11.23-.75.45-1.52.83-2.27 1.14l.02.04-17.04 10.48a.25.25 0 0 1-.26 0l-41-25.36a.25.25 0 0 1 0-.43L12.63 37l-.08-.09-.09-.1c-1.78-2.41-2.44-6.06-1.91-10.3a33.87 33.87 0 0 1 5.2-13.72c2.8-4.35 6.36-7.89 10-9.93Z" clip-rule="evenodd"/>
  <path fill="#2483D6" d="m28.26 55.58.04.02 8.2 4.88.03.03a.25.25 0 0 1-.25.43l-.04-.03-8.2-4.88-.03-.03a.25.25 0 0 1 .25-.42Z"/>
  <path fill="#2483D6" d="m8.87 44.1.04.02L25.3 53.9l.04.03a.25.25 0 0 1-.25.42l-.05-.02-16.37-9.77-.04-.03a.25.25 0 0 1 .25-.42Z"/>
  <path fill="#2483D6" fill-rule="evenodd" d="M61.44 28.5c2.8-1.71 5.62-2.22 7.78-.97 2.15 1.24 3.13 3.94 3.04 7.21-.08 3.28-1.23 7.2-3.41 10.98-2.19 3.78-5 6.73-7.8 8.45-2.79 1.7-5.62 2.21-7.77.97-2.16-1.25-3.14-3.95-3.05-7.22.08-3.28 1.23-7.2 3.42-10.98 2.18-3.78 5-6.73 7.8-8.45Zm7.53-.54c-1.92-1.11-4.54-.7-7.26.96-2.72 1.66-5.48 4.55-7.63 8.27-2.15 3.73-3.27 7.56-3.35 10.74-.09 3.2.87 5.67 2.8 6.78 1.92 1.1 4.54.7 7.26-.97 2.71-1.66 5.47-4.55 7.62-8.27 2.15-3.72 3.27-7.56 3.36-10.74.08-3.2-.88-5.66-2.8-6.77Z" clip-rule="evenodd"/>
  <path fill="#2483D6" d="m40.8 24.15.05.02 8.2 4.88.03.03a.25.25 0 0 1-.25.42l-.04-.02-8.2-4.88-.03-.03a.25.25 0 0 1 .25-.42Z"/>
  <path fill="#2483D6" d="m21.42 12.67.04.02 16.38 9.76.04.03a.25.25 0 0 1-.25.42l-.05-.02-16.37-9.76-.04-.03a.25.25 0 0 1 .25-.42Z"/>
  <path fill="#2483D6" fill-rule="evenodd" d="M25.76 2.86C29.4.82 32.93.39 35.63 1.76h.02L71.54 22.7l.05.03.07.04.15.1c2.8 1.75 4.14 5.32 4.1 9.62-.04 4.42-1.53 9.68-4.45 14.74-2.93 5.06-6.74 8.99-10.55 11.23-.75.45-1.52.83-2.27 1.14l.02.04-17.04 10.48a.25.25 0 0 1-.26 0l-41-25.36a.25.25 0 0 1 0-.43L12.63 37l-.08-.09-.09-.1c-1.77-2.41-2.44-6.06-1.91-10.3a33.87 33.87 0 0 1 5.2-13.72c2.8-4.35 6.36-7.89 10.01-9.93ZM.97 44.55 41.5 69.6l15.23-9.37c-2.34.6-4.55.44-6.42-.64a7.13 7.13 0 0 1-.37-.23L13.28 37.52a3.26 3.26 0 0 1-.26-.17L.97 44.55Zm70.29-21.43c-2.72-1.52-6.33-1-10.03 1.18-3.72 2.2-7.47 6.05-10.36 11.05-2.89 5-4.35 10.18-4.39 14.5-.04 4.13 1.22 7.43 3.7 9.09l.46.27c2.72 1.52 6.33 1 10.02-1.18 3.72-2.2 7.48-6.05 10.36-11.05 2.89-5 4.35-10.18 4.4-14.5.03-4.25-1.3-7.62-3.94-9.23l-.22-.13ZM35.4 2.2C32.9.95 29.57 1.3 26 3.3c-3.57 1.99-7.07 5.46-9.83 9.76a33.38 33.38 0 0 0-5.14 13.52c-.51 4.16.15 7.66 1.83 9.93l.14.16c.15.17.33.3.53.42l34.65 20.66c-1.51-1.94-2.24-4.72-2.2-7.9.03-4.43 1.53-9.7 4.45-14.75 2.92-5.06 6.73-8.99 10.54-11.23 2.8-1.66 5.63-2.42 8.1-2.02L35.42 2.2Z" clip-rule="evenodd"/>
</svg>
