<svg xmlns="http://www.w3.org/2000/svg" width="288" height="288" viewBox="0 0 288 288" fill="none">
    <path fill="#E2E8F0" d="M109.6 192H105l-9-15.6v-8l13.6 23.6Zm9.3 0h-4.6L96 160.4v-8l22.9 39.6Zm9.2 0h-4.6L96 144.4v-8l32.1 55.6Zm9.3 0h-4.7L96 128.4v-8l41.4 71.6Zm9.2 0H142l-46-79.6v-8l50.6 87.6Zm9.2 0h-4.6l-54-93.6a6 6 0 0 1 3.3-2.2l55.3 95.8Zm9.3 0h-4.6L105 96h4.6l55.5 96Zm9.2 0h-4.6l-55.4-96h4.6l55.4 96Zm9.3 0h-4.7l-55.4-96h4.6l55.5 96Zm-83.3-.3A6 6 0 0 1 96 186v-1.6l4.3 7.3Zm90.8-2.6a6 6 0 0 1-3.1 2.6L132.7 96h4.7l53.7 93.1Zm.9-14.5v8L142 96h4.6l45.4 78.6Zm0-16v8L151.2 96h4.6l36.2 62.6Zm0-16v8L160.5 96h4.6l26.9 46.6Zm0-16v8L169.7 96h4.6l17.7 30.6Zm0-16v8L179 96h4.6l8.4 14.6Zm-3.5-14c2 .9 3.5 3 3.5 5.4v.6l-3.5-6Z"/>
    <path fill="#DFE5ED" d="m287.3 95-35.8 1H0l41.5-1h245.8Z" opacity=".8"/>
    <path fill="#D7DFE9" d="M193 0v288l-1-35V28.5L193 0Z" opacity=".8"/>
</svg>
