<svg xmlns="http://www.w3.org/2000/svg" width="20" height="20" viewBox="0 0 20 20">
  <path d="M6.42 1.88c.2-.01.41.03.6.12l.1.05.08.05c.2.14.35.33.44.55L9.21 6.3l.06.15a1.27 1.27 0 0 1-.15 1.05l-1.3 1.97a5.88 5.88 0 0 0 2.72 2.71l1.94-1.3.14-.07c.14-.07.3-.12.45-.13h.16c.16 0 .32.03.47.1l3.65 1.57c.22.09.41.24.55.44l.05.09.05.09c.1.19.13.4.12.6v.1a4.4 4.4 0 0 1-4.17 3.84h-.2A11.28 11.28 0 0 1 2.49 6.81l-.02-.56a4.4 4.4 0 0 1 3.85-4.36l.1-.01ZM3.79 6.74a9.98 9.98 0 0 0 9.96 9.48h.28a3.1 3.1 0 0 0 2.79-2.68l-3.63-1.56-1.94 1.3a1.27 1.27 0 0 1-1.25.1 7.18 7.18 0 0 1-3.36-3.35l.59-.28-.59.28c-.1-.2-.14-.41-.12-.63l.02-.16c.03-.16.1-.32.18-.45l1.3-1.97-1.56-3.64a3.1 3.1 0 0 0-2.68 3.07v.5Z"/>
</svg>
