<svg xmlns="http://www.w3.org/2000/svg" width="71" height="73" fill="none" viewBox="0 0 71 73">
  <path fill="#fff" fill-rule="evenodd" d="M51.25.07c2.77 0 5.29.66 7.12 1.75 1.83 1.08 3.02 2.61 3.02 4.35V19.33l9.05 24.73c.28.78.48 1.66.31 2.53-.5 2.56-2.52 4.92-5.68 6.7-3.68 2.1-8.65 3.26-13.83 3.26-5 0-9.84-1.1-13.48-3.06l-.35-.2c-.33-.18-.65-.38-.96-.58l2.93 7.95c.18.5.31 1.05.28 1.6l-.02.25c-.39 2.7-2.44 5.2-5.74 7.06-3.68 2.1-8.66 3.26-13.83 3.26-5.18 0-10.15-1.17-13.83-3.26C2.94 67.7.88 65.2.5 62.51a3.8 3.8 0 0 1 .26-1.85l9.17-24.93V22.09h.02c.15-1.59 1.3-2.98 3-4a14.21 14.21 0 0 1 7.12-1.74c2.77 0 5.29.66 7.12 1.75 1.83 1.08 3.02 2.61 3.02 4.35v13.28l2.44 6.65 8.46-23.05V6.17c0-1.74 1.2-3.27 3.02-4.35A14.21 14.21 0 0 1 51.25.07Z" clip-rule="evenodd"/>
  <path fill="#2483D6" fill-rule="evenodd" d="M20.07 18.42c1.8 0 3.45.43 4.65 1.14 1.2.71 1.99 1.73 1.99 2.9 0 1.16-.8 2.17-2 2.88a9.27 9.27 0 0 1-4.64 1.14c-1.8 0-3.44-.43-4.64-1.14-1.2-.7-2-1.72-2-2.89 0-1.16.8-2.18 2-2.89a9.27 9.27 0 0 1 4.64-1.14Zm0 .5c-1.73 0-3.28.42-4.39 1.07-1.11.67-1.75 1.54-1.75 2.46 0 .92.64 1.8 1.75 2.46a8.77 8.77 0 0 0 4.4 1.07c1.72 0 3.27-.41 4.38-1.07 1.12-.66 1.75-1.54 1.75-2.46 0-.92-.63-1.8-1.75-2.46a8.78 8.78 0 0 0-4.39-1.07Z" clip-rule="evenodd"/>
  <path fill="#2483D6" fill-rule="evenodd" d="M51.1 2.09c1.8 0 3.43.43 4.64 1.14 1.2.7 1.99 1.72 1.99 2.89 0 1.17-.8 2.18-2 2.89a9.27 9.27 0 0 1-4.64 1.14c-1.8 0-3.44-.43-4.64-1.14-1.2-.71-2-1.72-2-2.9 0-1.16.8-2.17 2-2.88a9.27 9.27 0 0 1 4.64-1.14Zm0 .5c-1.74 0-3.29.41-4.4 1.07-1.11.66-1.75 1.54-1.75 2.46 0 .92.64 1.8 1.75 2.46a8.77 8.77 0 0 0 4.4 1.07c1.72 0 3.27-.41 4.38-1.07 1.12-.66 1.75-1.54 1.75-2.46 0-.92-.63-1.8-1.75-2.46a8.77 8.77 0 0 0-4.39-1.07Z" clip-rule="evenodd"/>
  <path fill="#2483D6" fill-rule="evenodd" d="M51.25.07c2.77 0 5.29.66 7.12 1.75C60.2 2.9 61.4 4.43 61.4 6.17V19.33l4.41 12.05 4.64 12.68c.29.78.49 1.66.31 2.53-.5 2.56-2.52 4.92-5.67 6.7-3.68 2.1-8.66 3.26-13.83 3.26-5.02 0-9.84-1.1-13.48-3.06l-.35-.2c-.34-.18-.66-.38-.97-.58l2.93 7.95c.19.5.31 1.05.28 1.6l-.02.25c-.39 2.7-2.44 5.2-5.74 7.06-3.68 2.1-8.66 3.26-13.83 3.26-5.18 0-10.15-1.17-13.83-3.26C2.94 67.7.88 65.2.5 62.51a3.8 3.8 0 0 1 .26-1.85l4.72-12.83.07-.28.03.01 4.36-11.83V22.1c.15-1.59 1.31-3 3.01-4a14.21 14.21 0 0 1 7.12-1.75c2.77 0 5.29.66 7.12 1.75 1.83 1.08 3.02 2.61 3.02 4.35v13.28l2.45 6.65 4.05-11.06.02-.05 4.38-11.94V6.17c0-1.74 1.2-3.27 3.02-4.35A14.21 14.21 0 0 1 51.25.07Zm-22.4 55.84c-.86.39-1.8.72-2.79.98-1.85.5-3.85.75-5.88.76v14.67a30 30 0 0 0 11.33-2.13L28.86 55.9ZM9.04 70.35c3.1 1.23 6.8 1.93 10.65 1.97V57.64c-1.99-.03-3.95-.3-5.76-.8a19 19 0 0 1-2.24-.76L9.03 70.35Zm-7.8-9.51c-.2.53-.31 1.07-.24 1.6.36 2.48 2.27 4.87 5.5 6.7.65.37 1.34.7 2.07 1.02l2.65-14.28c-.72-.32-1.39-.68-2-1.08l-.26-.18a8.94 8.94 0 0 1-2.88-3.06l-.11-.22c-.3-.61-.48-1.23-.55-1.86L1.23 60.84Zm33.5-11.36a5.68 5.68 0 0 1-.49 1.73l-.1.23a8.93 8.93 0 0 1-3.06 3.26c-.54.36-1.13.7-1.75 1l2.65 14.28c.58-.26 1.14-.54 1.67-.84 3.23-1.83 5.14-4.22 5.5-6.7l.01-.2c.03-.46-.08-.94-.25-1.4l-4.18-11.36Zm-8.72-8.9c-1.69.73-3.72 1.14-5.83 1.15v15.42c1.99-.01 3.95-.26 5.75-.74 1.01-.27 1.96-.61 2.83-1l-2.75-14.83Zm-14.24 15c.72.3 1.48.57 2.28.79l.7.17c1.57.37 3.24.58 4.93.6V41.73a15.27 15.27 0 0 1-5.15-.99l-2.76 14.84Zm48.27-15.95c-.87.39-1.8.72-2.8.98-1.85.5-3.85.75-5.88.76v14.67a30 30 0 0 0 11.33-2.13l-2.65-14.28ZM40.2 54.07a30.17 30.17 0 0 0 10.66 1.97V41.36c-1.99-.03-3.95-.3-5.76-.8-.79-.2-1.54-.47-2.25-.76L40.2 54.07Zm-34.23-6.1a4.95 4.95 0 0 0 .44 3.15l.1.2a8.45 8.45 0 0 0 2.72 2.9l.25.16c.56.36 1.17.7 1.82 1l2.76-14.84c-.4-.17-.76-.35-1.1-.56a6 6 0 0 1-2.86-3.25L5.97 47.96Zm24.07-11.24a5.99 5.99 0 0 1-2.85 3.25c-.23.14-.46.26-.7.38l2.74 14.83c.56-.28 1.08-.58 1.57-.9a8.43 8.43 0 0 0 2.89-3.08l.1-.2c.45-1 .58-2.03.39-3.05l-4.14-11.23Zm2.88 6.38 1.68 4.55h.02l.04.16 1.5 4.08c.46.33.96.65 1.5.96l.34.19c.55.3 1.13.57 1.73.82l2.65-14.27c-.71-.32-1.38-.68-1.99-1.08l-.26-.18a8.95 8.95 0 0 1-2.88-3.05l-.11-.23a5.7 5.7 0 0 1-.56-1.93l-3.66 9.98Zm33-9.96c-.07.6-.23 1.2-.5 1.78l-.1.23a8.93 8.93 0 0 1-3.06 3.26c-.54.37-1.13.7-1.75 1l2.65 14.28c.58-.26 1.14-.54 1.67-.84 3.08-1.75 4.96-4 5.43-6.37.15-.74-.01-1.5-.29-2.26l-4.05-11.08Zm-39.94-5.73c-1.64.7-3.64 1.12-5.8 1.13v12.68a14.5 14.5 0 0 0 5.8-1.18V27.42Zm-11.39 12.8c1.5.61 3.26.96 5.1 1V28.56a15.21 15.21 0 0 1-5.1-.96v12.64ZM57.2 24.3c-1.7.73-3.73 1.14-5.83 1.15v15.42c1.99-.01 3.95-.26 5.75-.74 1.01-.27 1.96-.6 2.83-1L57.2 24.3Zm-14.24 15c.71.3 1.48.57 2.28.79l.7.18c1.57.37 3.24.57 4.93.6V25.44a15.27 15.27 0 0 1-5.15-.99L42.95 39.3Zm-32.52-3.67.02.27c.1 1.34 1.06 2.65 2.76 3.65.28.17.57.32.88.46V27.4c-.4-.18-.78-.37-1.14-.58-1.12-.67-2-1.5-2.52-2.45v11.27Zm19.28-11.27a6.65 6.65 0 0 1-2.52 2.45c-.22.13-.46.26-.71.38V39.8l.46-.25c1.8-1.07 2.77-2.5 2.77-3.92V24.36Zm7.48 7.1a4.93 4.93 0 0 0 .4 3.38l.1.2a8.45 8.45 0 0 0 2.72 2.9l.25.16c.56.36 1.17.7 1.82 1l2.75-14.83c-.38-.18-.75-.36-1.1-.57-1.5-.89-2.51-2.05-2.87-3.32l-4.07 11.08Zm24.05-11.08c-.36 1.27-1.37 2.43-2.87 3.32-.23.14-.47.27-.71.39L60.4 38.9c.56-.28 1.08-.58 1.57-.9a8.43 8.43 0 0 0 2.89-3.08l.1-.2c.48-1.05.6-2.14.35-3.2l-4.08-11.15Zm-41.17-3.53c-2.7 0-5.12.65-6.86 1.68-1.75 1.04-2.78 2.43-2.78 3.92 0 1.5 1.03 2.9 2.78 3.93a13.72 13.72 0 0 0 6.86 1.68c2.7 0 5.12-.65 6.87-1.68 1.75-1.04 2.77-2.43 2.77-3.93 0-1.49-1.02-2.88-2.77-3.92a13.72 13.72 0 0 0-6.87-1.68Zm37.09-5.7c-1.64.7-3.64 1.11-5.8 1.13v12.67a14.5 14.5 0 0 0 5.8-1.18V11.14Zm-11.39 12.8c1.5.6 3.26.95 5.1 1V12.27a15.21 15.21 0 0 1-5.1-.96v12.64Zm-4.16-4.6v.03h.01v.23c.12 1.35 1.07 2.66 2.77 3.66.28.17.57.32.88.46V11.11c-.4-.18-.78-.37-1.14-.58-1.12-.67-2-1.5-2.52-2.45v11.27ZM60.9 8.08a6.65 6.65 0 0 1-2.52 2.45c-.23.13-.46.26-.71.38v12.61l.46-.25c1.8-1.07 2.77-2.5 2.77-3.92V8.08ZM51.25.57c-2.7 0-5.12.65-6.86 1.68-1.75 1.04-2.78 2.43-2.78 3.92 0 1.5 1.03 2.9 2.78 3.93a13.72 13.72 0 0 0 6.86 1.68c2.7 0 5.12-.65 6.87-1.68 1.75-1.04 2.77-2.43 2.77-3.93 0-1.49-1.02-2.88-2.77-3.92A13.72 13.72 0 0 0 51.25.57Z" clip-rule="evenodd"/>
</svg>
