<svg xmlns="http://www.w3.org/2000/svg" width="74" height="76" fill="none" viewBox="0 0 74 76">
  <path fill="#fff" fill-rule="evenodd" d="M30.73.8c1.41 0 2.7.31 3.65.84.93.52 1.58 1.29 1.58 2.19l-.01.25h.01v13.58l.2.14 12.73-7.35V4.81c0-.52.37-.93.86-1.2.5-.28 1.16-.45 1.89-.45.72 0 1.4.17 1.89.44.49.28.86.7.86 1.21l-.02.22h.02v29.35l18.8 10.87c.5.28.7.8.62 1.29l-.1 2.87c0 .37-.18.72-.47.94l-.13.1-40.22 24.3c-1.33.8-2.99.82-4.33.04L1.23 58.96c-.34-.2-.56-.53-.62-.92v-3.66c.03-.4.23-.78.62-1l15.65-9.05a15.16 15.16 0 0 1 7.69-19.98c-.38-.45-.6-.96-.66-1.49V20.13c.02-.97.64-1.83 1.6-2.47V4.08h.01a1.85 1.85 0 0 1-.02-.25c0-.9.65-1.67 1.6-2.19A7.6 7.6 0 0 1 30.72.8Zm6.84 20.27v1.59c0 .6-.24 1.18-.67 1.7a15.21 15.21 0 0 1 6.14 5c1.1-.33 2.3-.2 3.32.39l2.53 1.46V14.53l-11.32 6.54Z" clip-rule="evenodd"/>
  <path fill="#2483D6" fill-rule="evenodd" d="M30.73.8c1.41 0 2.7.31 3.65.84.93.52 1.58 1.29 1.58 2.19v13.82l.2.15 12.73-7.35V4.74c.04-.49.4-.88.86-1.14.5-.27 1.16-.44 1.89-.44.72 0 1.4.17 1.89.44.46.26.82.65.86 1.14v29.64l18.8 10.87.16.1c.37.28.52.74.46 1.18l-.1 2.88c0 .38-.18.72-.47.95l-.13.09-40.22 24.3c-1.33.8-2.99.82-4.33.04L1.23 58.96c-.34-.2-.57-.53-.62-.92V54.53c-.02-.45.18-.9.62-1.16l15.65-9.04a15.15 15.15 0 0 1 7.69-19.98c-.38-.45-.6-.96-.66-1.49V20.2c0-1 .62-1.87 1.6-2.53V3.83c0-.9.64-1.67 1.58-2.19A7.6 7.6 0 0 1 30.73.8Zm42.48 46.6L32.86 71.17a4.25 4.25 0 0 1-4.01.16l-.26-.13L1.24 55.54a1.3 1.3 0 0 1-.14-.09v2.43l.01.1c.03.23.16.43.37.55L28.8 74.36c1.19.69 2.65.67 3.82-.03l40.22-24.31.08-.06a.75.75 0 0 0 .29-.56l.06-2.05-.07.05ZM45.53 29.84c-.7-.4-1.53-.45-2.26-.16a15.08 15.08 0 0 1 2.11 12.4v.04a15.16 15.16 0 0 1-28.3 2.67L1.49 53.8a.75.75 0 0 0 0 1.3l27.36 15.66.23.12c1.12.55 2.45.5 3.54-.14l40.35-23.77.08-.06a.74.74 0 0 0 .27-.43v-.08h.01a.74.74 0 0 0-.28-.66l-.1-.06L54.4 34.96v7.1c0 .5-.35.93-.86 1.21-.52.3-1.2.44-1.89.44-.7 0-1.38-.15-1.89-.44-.48-.26-.82-.65-.86-1.11V31.78l-3.36-1.94ZM17.39 44.25a14.66 14.66 0 0 0 26.65.1c-.94 1.06-2.25 2-3.81 2.74a22.39 22.39 0 0 1-9.5 1.97c-3.54 0-6.83-.74-9.41-1.97a12.06 12.06 0 0 1-3.93-2.84Zm7.54-19.51a14.66 14.66 0 0 0-8.36 17.23c.67 1.83 2.45 3.48 4.96 4.67 2.51 1.2 5.72 1.92 9.2 1.92 3.54 0 6.77-.73 9.29-1.92 2.5-1.2 4.24-2.84 4.88-4.68a14.67 14.67 0 0 0-8.36-17.22c-.17.16-.37.31-.58.46v1.83c0 .87-.6 1.65-1.58 2.2-.98.54-2.3.84-3.65.84s-2.66-.3-3.64-.85c-.91-.51-1.5-1.22-1.58-2.03V25.2c-.22-.15-.4-.3-.58-.46ZM53.9 5.77c-.11.09-.23.17-.36.25-.5.27-1.17.44-1.89.44-.73 0-1.4-.17-1.89-.44a2.26 2.26 0 0 1-.36-.25v4.4l.27-.16c.3-.18.68-.1 1 .09.32.19.62.51.83.89.22.37.35.8.36 1.17 0 .33-.1.64-.32.83l-.1.08-2.04 1.17V42.16c.05.22.23.47.6.68.43.23 1.02.37 1.65.37.63 0 1.22-.14 1.64-.37.43-.24.6-.53.6-.77V5.77Zm-16.32 15.3v1.59c0 .6-.24 1.18-.67 1.7a15.2 15.2 0 0 1 6.08 4.9c.9-.4 1.94-.35 2.8.15l3.11 1.8V14.53l-11.32 6.54ZM26 27.03v.12c.06.57.5 1.17 1.34 1.63.88.5 2.1.79 3.4.79 1.28 0 2.5-.29 3.4-.79.89-.5 1.32-1.14 1.32-1.75V25.5c-1.27.7-2.97 1.09-4.72 1.09-1.76 0-3.46-.39-4.74-1.09v1.53Zm11.07-5.35c-.37.52-.9.97-1.56 1.34a9.97 9.97 0 0 1-4.78 1.1 9.97 9.97 0 0 1-4.77-1.1 4.67 4.67 0 0 1-1.56-1.34v.98l.01.16c.07.8.68 1.6 1.8 2.22a9.53 9.53 0 0 0 4.53 1.05c1.7 0 3.34-.38 4.53-1.05 1.2-.67 1.8-1.53 1.8-2.38v-.98Zm-11.57-3.4c-.71.56-1.1 1.23-1.1 1.92 0 .88.65 1.73 1.8 2.38a9.48 9.48 0 0 0 4.53 1.05c1.78 0 3.39-.4 4.53-1.05 1.16-.64 1.8-1.5 1.8-2.38 0-.69-.38-1.35-1.1-1.92v1.08c0 .87-.6 1.64-1.58 2.19-.98.55-2.3.85-3.65.85s-2.66-.3-3.64-.85c-.91-.51-1.5-1.23-1.58-2.03v-1.24Zm9.96-13.15c-.27.34-.64.64-1.08.89a7.6 7.6 0 0 1-3.65.85 7.6 7.6 0 0 1-3.64-.85A3.75 3.75 0 0 1 26 5.13v14.35c.06.57.5 1.16 1.34 1.63.88.5 2.1.79 3.4.79 1.28 0 2.5-.29 3.4-.79.89-.5 1.32-1.14 1.32-1.75V5.13Zm14.94 5.4c-.24-.15-.4-.14-.49-.09l-13.34 7.7c.62.59 1 1.29 1 2.06l-.03.3 13.64-7.87.06-.05c.06-.07.11-.2.1-.41a2 2 0 0 0-.28-.93 2 2 0 0 0-.66-.71ZM30.73 1.29c-1.34 0-2.54.3-3.4.79-.86.48-1.33 1.11-1.33 1.75 0 .64.47 1.27 1.34 1.75.85.48 2.05.79 3.4.79 1.33 0 2.54-.3 3.4-.79.86-.48 1.32-1.11 1.32-1.75 0-.64-.46-1.27-1.33-1.75a7.11 7.11 0 0 0-3.4-.79Zm20.91 2.37c-.66 0-1.24.15-1.65.38-.41.23-.6.51-.6.77 0 .25.19.54.6.77.41.23 1 .38 1.65.38.66 0 1.24-.15 1.64-.38.42-.23.6-.52.6-.77 0-.26-.18-.54-.6-.77-.4-.23-.98-.38-1.64-.38Z" clip-rule="evenodd"/>
</svg>
