<svg width="76" height="57" viewBox="0 0 76 57" fill="none" xmlns="http://www.w3.org/2000/svg">
<path d="M27.2348 0.390625C32.6694 3.51597 39.2611 3.88926 45.0141 1.39844L45.6548 1.12207L75.0259 18.8164L73.3931 20.1143C71.4107 21.6892 71.3891 24.6924 73.3491 26.2949L75.1382 27.7568L74.7134 28.0098L75.0825 28.2061L75.2192 39.168L57.4184 49.9268C48.645 55.1802 38.2528 57.0437 28.2007 55.166L9.86376 51.7402C8.65517 51.5145 7.61689 50.7459 7.0493 49.6553L2.09032 40.124C1.04 38.1053 0.916491 33.7793 0.916491 33.7793L0.893054 25.2266C0.242995 21.0623 2.02984 16.7487 5.72606 14.3154L27.0454 0.28125L27.2348 0.390625Z" fill="white"/>
<path fill-rule="evenodd" clip-rule="evenodd" d="M31.2803 9.37492C31.3946 9.36532 31.5035 9.43608 31.5391 9.54973L34.0859 17.6991L52.1279 17.7001C52.197 17.7001 52.2633 17.7288 52.3105 17.7792C52.3578 17.8298 52.3825 17.8977 52.3779 17.9667L51.8418 25.9579C51.8406 25.9754 51.8376 25.9925 51.833 26.0087L51.6328 30.5702C51.6267 30.7041 51.5159 30.8092 51.3818 30.8085L25.3516 30.663C25.247 30.6621 25.1536 30.5954 25.1182 30.497L21.7207 21.0185C21.7105 20.9899 21.7054 20.959 21.7061 20.9286L21.8975 12.2284L21.9727 12.2294C21.9771 12.2106 21.9834 12.1922 21.9922 12.1747C22.0234 12.1131 22.0793 12.0672 22.1455 12.0478L31.2305 9.38371L31.2803 9.37492ZM22.207 20.8935L25.5293 30.163L51.1436 30.3066L51.3252 26.1864L27.084 25.8027C26.9809 25.8009 26.8892 25.7363 26.8535 25.6396L22.3711 13.4345L22.207 20.8935ZM22.542 12.4521L27.2637 25.3046L51.3584 25.6874L51.8613 18.1991H33.9014C33.7926 18.1988 33.6958 18.1291 33.6631 18.0253L31.1357 9.93254L22.542 12.4521Z" fill="#2483D6"/>
<path fill-rule="evenodd" clip-rule="evenodd" d="M26.9697 0.0428909C27.0355 0.022163 27.1084 0.028992 27.1699 0.0643753L27.3594 0.17375L27.8662 0.455C33.1318 3.27978 39.4121 3.55238 44.915 1.16984L45.5547 0.8925L45.6123 0.874922C45.6706 0.86498 45.7314 0.876026 45.7832 0.907149L75.1553 18.6025C75.2252 18.6447 75.27 18.7182 75.2754 18.7997C75.2806 18.8814 75.2457 18.9607 75.1816 19.0116L73.5479 20.3095C71.6906 21.7852 71.6713 24.5999 73.5078 26.1015L75.2959 27.5634C75.3589 27.6149 75.3936 27.6941 75.3877 27.7753C75.387 27.7853 75.3838 27.7949 75.3818 27.8046V39.1952C75.3817 39.2825 75.3354 39.3629 75.2607 39.4081L57.5479 50.1405L57.5469 50.1415C48.9969 55.2612 38.9185 57.1804 29.1035 55.578L28.1553 55.412L9.81738 51.9863C8.61333 51.7613 7.56898 51.029 6.94629 49.9833L6.82715 49.7704L1.86816 40.2392C1.32024 39.1858 1.02342 37.5592 0.861328 36.2255C0.779575 35.5528 0.731302 34.9434 0.703125 34.5029C0.689038 34.2826 0.680287 34.104 0.674805 33.9804C0.672071 33.9187 0.670128 33.8706 0.668945 33.8378C0.668356 33.8214 0.667271 33.8083 0.666992 33.7997V33.7831L0.509766 23.5663L0.513672 23.5654C0.502875 19.8689 2.31078 16.2654 5.58887 14.1073L26.9072 0.0721878L26.9697 0.0428909ZM1.16699 33.7724V33.7841C1.16724 33.792 1.16741 33.8038 1.16797 33.8193C1.1691 33.8507 1.17116 33.8978 1.17383 33.9579C1.17918 34.0786 1.1883 34.2541 1.20215 34.4706C1.22989 34.9043 1.2771 35.504 1.35742 36.165C1.5195 37.4986 1.81034 39.0436 2.3125 40.0087L7.27148 49.54L7.37598 49.7275C7.92541 50.6501 8.84679 51.2966 9.90918 51.495L28.2471 54.9208L29.1846 55.0849C38.8827 56.6681 48.8408 54.7713 57.2891 49.7128L74.8818 39.0536V28.2011L57.4639 38.6318C48.9141 43.7512 38.8362 45.6705 29.0215 44.0683L28.0723 43.9023L8.77734 40.2978C8.1824 40.1866 7.66106 39.8413 7.32617 39.3456L7.19434 39.1239L1.78613 28.7294C1.49217 28.1644 1.25333 27.584 1.0625 26.996L1.16699 33.7724ZM5.86328 14.5243C1.2489 17.5621 -0.320476 23.5981 2.22949 28.4989L7.6377 38.8935L7.74023 39.0654C8.00069 39.451 8.40628 39.7201 8.86914 39.8066L28.1641 43.4101L29.1016 43.5741C38.8002 45.1576 48.7584 43.261 57.207 38.2021L74.7041 27.7245L73.1914 26.4882C71.1079 24.7847 71.1302 21.592 73.2373 19.9179L74.5879 18.8437L45.6357 1.40227L45.1133 1.62785C39.4699 4.07119 33.0299 3.79232 27.6299 0.89543L27.1104 0.607344L27.0537 0.574141L5.86328 14.5243Z" fill="#2483D6"/>
</svg>
