<svg xmlns="http://www.w3.org/2000/svg" width="40" height="40" viewBox="0 0 40 40" fill="none">
  <path fill="#fff" fill-rule="evenodd" d="M20 2c1.52 0 2.9.56 3.89 1.39a4.1 4.1 0 0 1 1.64 3.01c0 .21-.03.41-.07.61l-2.22 12.2c-.04.2-.05.38-.04.57 2.5.38 4.69 1.2 6.25 2.29 1.52 1.05 2.47 2.39 2.54 3.86H32v6.13c0 1.68-1.39 3.17-3.55 4.22A19.72 19.72 0 0 1 20 38c-3.3 0-6.28-.65-8.45-1.72-2.1-1.02-3.46-2.45-3.55-4.07v-6.36h.01c.1-1.41 1.02-2.7 2.45-3.72 1.5-1.08 3.61-1.9 6.04-2.3 0-.17 0-.34-.03-.5L14.5 6.8a2.76 2.76 0 0 1-.03-.4c0-1.1.65-2.2 1.64-3.02C17.11 2.56 18.48 2 20 2Z" clip-rule="evenodd"/>
  <path fill="#2483D6" fill-rule="evenodd" d="M20 2c1.52 0 2.9.56 3.89 1.39a4.1 4.1 0 0 1 1.64 3.01c0 .21-.03.41-.07.61l-2.22 12.2c-.04.2-.05.38-.04.57 2.5.38 4.69 1.2 6.25 2.29 1.52 1.05 2.47 2.39 2.54 3.86H32v6.13c0 1.68-1.39 3.17-3.55 4.22A19.72 19.72 0 0 1 20 38c-3.3 0-6.28-.65-8.45-1.72-2.1-1.02-3.46-2.45-3.55-4.07v-6.36h.01c.1-1.41 1.02-2.7 2.45-3.72 1.5-1.08 3.61-1.9 6.04-2.3 0-.17 0-.34-.03-.5L14.5 6.8a2.76 2.76 0 0 1-.03-.4c0-1.1.65-2.2 1.64-3.02C17.11 2.56 18.48 2 20 2Zm11.75 25.47c-.49 1.3-1.67 2.45-3.3 3.33A18.09 18.09 0 0 1 20 32.7c-3.3 0-6.29-.72-8.46-1.9-1.62-.88-2.8-2.03-3.29-3.33V32.2c.08 1.48 1.34 2.84 3.4 3.86A19.48 19.48 0 0 0 20 37.75c3.26 0 6.21-.65 8.34-1.7 2.14-1.04 3.41-2.46 3.41-4v-4.58Zm-8.52-7.43c.03.23.1.45.19.65l.58 1.32c1.32.38 2.43.96 3.22 1.66.8.7 1.26 1.54 1.26 2.46 0 1.32-.98 2.49-2.51 3.32A12.77 12.77 0 0 1 20 30.79c-2.32 0-4.43-.5-5.97-1.34-1.53-.83-2.51-2-2.51-3.32 0-.9.45-1.73 1.22-2.42a8.18 8.18 0 0 1 3.03-1.64l.56-1.46c.07-.17.11-.34.14-.52-2.37.4-4.41 1.2-5.87 2.24-1.49 1.07-2.35 2.39-2.35 3.8 0 1.7 1.28 3.29 3.41 4.45A17.84 17.84 0 0 0 20 32.45c3.26 0 6.21-.72 8.34-1.87 2.13-1.16 3.41-2.74 3.41-4.45 0-1.44-.9-2.78-2.44-3.86a14.66 14.66 0 0 0-6.08-2.23Zm1.93 4.56c.16.34.27.75.17 1.15-.2.9-.88 1.66-1.82 2.21-.95.55-2.17.88-3.51.88-1.35 0-2.6-.34-3.55-.9a3.66 3.66 0 0 1-1.76-2.1l-.04-.17c-.07-.35.01-.7.13-1.01l.88-2.28c-1.14.38-2.08.9-2.76 1.52-.73.66-1.13 1.42-1.13 2.23 0 1.18.88 2.28 2.38 3.1 1.49.8 3.56 1.3 5.85 1.3 2.3 0 4.36-.5 5.85-1.3 1.5-.82 2.38-1.92 2.38-3.1 0-.82-.42-1.6-1.17-2.27a8.02 8.02 0 0 0-2.92-1.55l1.02 2.29Zm-8.44-5.32c.07.48.02.97-.15 1.43L15 24.75c-.1.3-.17.6-.12.87l.04.16c.2.75.8 1.43 1.65 1.94.9.54 2.1.86 3.42.86a6.8 6.8 0 0 0 3.38-.84 3.38 3.38 0 0 0 1.71-2.05c.08-.32 0-.66-.16-.99l-1.74-3.9c-.23-.51-.3-1.08-.2-1.63l2.03-11.15a4.2 4.2 0 0 1-1.15 1.13c-1 .69-2.37 1.1-3.87 1.1s-2.87-.41-3.87-1.1c-.5-.34-.91-.75-1.2-1.21l1.79 11.34ZM20 2.25c-2.91 0-5.28 2.17-5.28 4.15v.19c.15 1.83 2.31 3.3 5 3.4H20c2.64 0 4.82-1.31 5.21-3.03l.04-.2.02-.17V6.4c0-1.92-2.21-4.01-5-4.14H20Z" clip-rule="evenodd"/>
</svg>
