<svg xmlns="http://www.w3.org/2000/svg" width="76" height="74" fill="none" viewBox="0 0 76 74">
  <path fill="#fff" fill-rule="evenodd" d="m71.28 18.66-1.64.94v26.5l5.27 3 .31.15v2.8L37.77 73.6.67 52.05v-2.67l-.02-.02L5.6 46.5l.17-27.2-1.13-.64.39-.22L37.89.2l.12-.07 33.27 18.54Zm-59.8 24.48L29.5 32.63 11.22 22.17l.25 20.97ZM46.4 32.7l17.53 9.99V22.58L46.41 32.7Z" clip-rule="evenodd"/>
  <path fill="#2483D6" fill-rule="evenodd" d="M37.95.16c.06-.01.13 0 .18.03L70.9 18.44a.25.25 0 0 1 0 .44l-1 .57v26.5l5.46 3.12c.07.04.1.1.12.18v2.8c0 .1-.04.17-.12.22L37.89 73.8a.25.25 0 0 1-.25 0L.54 52.27a.25.25 0 0 1-.12-.22v-2.59a.25.25 0 0 1-.02-.1c0-.09.05-.17.12-.22l4.82-2.77V19.05l-.3-.17a.25.25 0 0 1 0-.44L37.89.2l.06-.03Zm0 70.85a.25.25 0 0 1-.24 0L.92 49.81v2.1l36.85 21.4 37.2-21.4v-2.19l-37.01 21.3ZM11.58 43.34v6.23c0 .1-.04.18-.12.22l-2.87 1.6a.25.25 0 0 1-.25 0l-2.87-1.6a.25.25 0 0 1-.12-.21v-2.64l-4.2 2.42 36.7 21.14L74.71 49.3l-4.83-2.77v3.05c0 .1-.05.17-.13.22l-2.87 1.6a.25.25 0 0 1-.18.03l-.06-.02-2.87-1.6a.25.25 0 0 1-.13-.22v-6.62L46.3 33.04l-5.23 3.01v30.53c0 .09-.05.17-.13.22l-2.87 1.6a.25.25 0 0 1-.18.03l-.06-.03-2.87-1.6a.25.25 0 0 1-.13-.21v-30.6l-5.26-3.03-18 10.38Zm23.76 23.1 2.37 1.32V37.63l-2.37-1.36v30.17ZM38.2 37.7v30.06l2.37-1.33v-30.1L38.2 37.7ZM5.84 49.43l2.36 1.32V20.7l-2.36-1.36v30.1Zm2.86 1.32 2.37-1.33V22.35L8.7 20.98v29.77Zm55.45-28v26.68l2.37 1.32V21.4l-2.37 1.36Zm2.87-1.64v29.64l2.37-1.33V19.74l-2.37 1.37ZM11.57 42.77l17.5-10.1-17.5-10.04v20.14Zm35.24-10.02 16.84 9.63V23.05l-16.84 9.7ZM5.66 18.66l32.1 18.43V.83L5.66 18.66Zm32.6 18.43 32-18.43-32-17.83V37.1Z" clip-rule="evenodd"/>
</svg>
